<svg viewBox="0 0 1200 675" xmlns="http://www.w3.org/2000/svg" role="img" aria-label="Conectar IA a tus datos cumpliendo la Ley 21.719" preserveAspectRatio="xMidYMid slice">
  <defs>
    <linearGradient id="bg" x1="0" y1="0" x2="1" y2="1">
      <stop offset="0" stop-color="#0D0D14"/><stop offset=".5" stop-color="#161A2E"/><stop offset="1" stop-color="#0B0B12"/>
    </linearGradient>
    <linearGradient id="brand" x1="0" y1="0" x2="1" y2="1">
      <stop offset="0" stop-color="#D4A5E0"/><stop offset=".5" stop-color="#B37BBF"/><stop offset="1" stop-color="#9B61A4"/>
    </linearGradient>
    <linearGradient id="green" x1="0" y1="0" x2="1" y2="1">
      <stop offset="0" stop-color="#26E0C0"/><stop offset="1" stop-color="#04C7AA"/>
    </linearGradient>
    <radialGradient id="glow" cx=".72" cy=".22" r=".75">
      <stop offset="0" stop-color="#9B61A4" stop-opacity=".40"/><stop offset="1" stop-color="#9B61A4" stop-opacity="0"/>
    </radialGradient>
    <radialGradient id="glow2" cx=".2" cy=".85" r=".6">
      <stop offset="0" stop-color="#04C7AA" stop-opacity=".18"/><stop offset="1" stop-color="#04C7AA" stop-opacity="0"/>
    </radialGradient>
  </defs>
  <rect width="1200" height="675" fill="url(#bg)"/>
  <rect width="1200" height="675" fill="url(#glow)"/>
  <rect width="1200" height="675" fill="url(#glow2)"/>
  <circle cx="120" cy="130" r="2" fill="#B37BBF" opacity="0.07"/><circle cx="120" cy="182" r="2" fill="#B37BBF" opacity="0.07"/><circle cx="120" cy="234" r="2" fill="#B37BBF" opacity="0.07"/><circle cx="120" cy="286" r="2" fill="#B37BBF" opacity="0.07"/><circle cx="120" cy="338" r="2" fill="#B37BBF" opacity="0.07"/><circle cx="120" cy="390" r="2" fill="#B37BBF" opacity="0.07"/><circle cx="120" cy="442" r="2" fill="#B37BBF" opacity="0.07"/><circle cx="172" cy="130" r="2" fill="#B37BBF" opacity="0.07"/><circle cx="172" cy="182" r="2" fill="#B37BBF" opacity="0.07"/><circle cx="172" cy="234" r="2" fill="#B37BBF" opacity="0.07"/><circle cx="172" cy="286" r="2" fill="#B37BBF" opacity="0.07"/><circle cx="172" cy="338" r="2" fill="#B37BBF" opacity="0.07"/><circle cx="172" cy="390" r="2" fill="#B37BBF" opacity="0.07"/><circle cx="172" cy="442" r="2" fill="#B37BBF" opacity="0.07"/><circle cx="224" cy="130" r="2" fill="#B37BBF" opacity="0.07"/><circle cx="224" cy="182" r="2" fill="#B37BBF" opacity="0.07"/><circle cx="224" cy="234" r="2" fill="#B37BBF" opacity="0.07"/><circle cx="224" cy="286" r="2" fill="#B37BBF" opacity="0.07"/><circle cx="224" cy="338" r="2" fill="#B37BBF" opacity="0.07"/><circle cx="224" cy="390" r="2" fill="#B37BBF" opacity="0.07"/><circle cx="224" cy="442" r="2" fill="#B37BBF" opacity="0.07"/><circle cx="276" cy="130" r="2" fill="#B37BBF" opacity="0.07"/><circle cx="276" cy="182" r="2" fill="#B37BBF" opacity="0.07"/><circle cx="276" cy="234" r="2" fill="#B37BBF" opacity="0.07"/><circle cx="276" cy="286" r="2" fill="#B37BBF" opacity="0.07"/><circle cx="276" cy="338" r="2" fill="#B37BBF" opacity="0.07"/><circle cx="276" cy="390" r="2" fill="#B37BBF" opacity="0.07"/><circle cx="276" cy="442" r="2" fill="#B37BBF" opacity="0.07"/><circle cx="328" cy="130" r="2" fill="#B37BBF" opacity="0.07"/><circle cx="328" cy="182" r="2" fill="#B37BBF" opacity="0.07"/><circle cx="328" cy="234" r="2" fill="#B37BBF" opacity="0.07"/><circle cx="328" cy="286" r="2" fill="#B37BBF" opacity="0.07"/><circle cx="328" cy="338" r="2" fill="#B37BBF" opacity="0.07"/><circle cx="328" cy="390" r="2" fill="#B37BBF" opacity="0.07"/><circle cx="328" cy="442" r="2" fill="#B37BBF" opacity="0.07"/><circle cx="380" cy="130" r="2" fill="#B37BBF" opacity="0.07"/><circle cx="380" cy="182" r="2" fill="#B37BBF" opacity="0.07"/><circle cx="380" cy="234" r="2" fill="#B37BBF" opacity="0.07"/><circle cx="380" cy="286" r="2" fill="#B37BBF" opacity="0.07"/><circle cx="380" cy="338" r="2" fill="#B37BBF" opacity="0.07"/><circle cx="380" cy="390" r="2" fill="#B37BBF" opacity="0.07"/><circle cx="380" cy="442" r="2" fill="#B37BBF" opacity="0.07"/><circle cx="432" cy="130" r="2" fill="#B37BBF" opacity="0.07"/><circle cx="432" cy="182" r="2" fill="#B37BBF" opacity="0.07"/><circle cx="432" cy="234" r="2" fill="#B37BBF" opacity="0.07"/><circle cx="432" cy="286" r="2" fill="#B37BBF" opacity="0.07"/><circle cx="432" cy="338" r="2" fill="#B37BBF" opacity="0.07"/><circle cx="432" cy="390" r="2" fill="#B37BBF" opacity="0.07"/><circle cx="432" cy="442" r="2" fill="#B37BBF" opacity="0.07"/><circle cx="484" cy="130" r="2" fill="#B37BBF" opacity="0.07"/><circle cx="484" cy="182" r="2" fill="#B37BBF" opacity="0.07"/><circle cx="484" cy="234" r="2" fill="#B37BBF" opacity="0.07"/><circle cx="484" cy="286" r="2" fill="#B37BBF" opacity="0.07"/><circle cx="484" cy="338" r="2" fill="#B37BBF" opacity="0.07"/><circle cx="484" cy="390" r="2" fill="#B37BBF" opacity="0.07"/><circle cx="484" cy="442" r="2" fill="#B37BBF" opacity="0.07"/><circle cx="536" cy="130" r="2" fill="#B37BBF" opacity="0.07"/><circle cx="536" cy="182" r="2" fill="#B37BBF" opacity="0.07"/><circle cx="536" cy="234" r="2" fill="#B37BBF" opacity="0.07"/><circle cx="536" cy="286" r="2" fill="#B37BBF" opacity="0.07"/><circle cx="536" cy="338" r="2" fill="#B37BBF" opacity="0.07"/><circle cx="536" cy="390" r="2" fill="#B37BBF" opacity="0.07"/><circle cx="536" cy="442" r="2" fill="#B37BBF" opacity="0.07"/><circle cx="588" cy="130" r="2" fill="#B37BBF" opacity="0.07"/><circle cx="588" cy="182" r="2" fill="#B37BBF" opacity="0.07"/><circle cx="588" cy="234" r="2" fill="#B37BBF" opacity="0.07"/><circle cx="588" cy="286" r="2" fill="#B37BBF" opacity="0.07"/><circle cx="588" cy="338" r="2" fill="#B37BBF" opacity="0.07"/><circle cx="588" cy="390" r="2" fill="#B37BBF" opacity="0.07"/><circle cx="588" cy="442" r="2" fill="#B37BBF" opacity="0.07"/><circle cx="640" cy="130" r="2" fill="#B37BBF" opacity="0.07"/><circle cx="640" cy="182" r="2" fill="#B37BBF" opacity="0.07"/><circle cx="640" cy="234" r="2" fill="#B37BBF" opacity="0.07"/><circle cx="640" cy="286" r="2" fill="#B37BBF" opacity="0.07"/><circle cx="640" cy="338" r="2" fill="#B37BBF" opacity="0.07"/><circle cx="640" cy="390" r="2" fill="#B37BBF" opacity="0.07"/><circle cx="640" cy="442" r="2" fill="#B37BBF" opacity="0.07"/><circle cx="692" cy="130" r="2" fill="#B37BBF" opacity="0.07"/><circle cx="692" cy="182" r="2" fill="#B37BBF" opacity="0.07"/><circle cx="692" cy="234" r="2" fill="#B37BBF" opacity="0.07"/><circle cx="692" cy="286" r="2" fill="#B37BBF" opacity="0.07"/><circle cx="692" cy="338" r="2" fill="#B37BBF" opacity="0.07"/><circle cx="692" cy="390" r="2" fill="#B37BBF" opacity="0.07"/><circle cx="692" cy="442" r="2" fill="#B37BBF" opacity="0.07"/><circle cx="744" cy="130" r="2" fill="#B37BBF" opacity="0.07"/><circle cx="744" cy="182" r="2" fill="#B37BBF" opacity="0.07"/><circle cx="744" cy="234" r="2" fill="#B37BBF" opacity="0.07"/><circle cx="744" cy="286" r="2" fill="#B37BBF" opacity="0.07"/><circle cx="744" cy="338" r="2" fill="#B37BBF" opacity="0.07"/><circle cx="744" cy="390" r="2" fill="#B37BBF" opacity="0.07"/><circle cx="744" cy="442" r="2" fill="#B37BBF" opacity="0.07"/><circle cx="796" cy="130" r="2" fill="#B37BBF" opacity="0.07"/><circle cx="796" cy="182" r="2" fill="#B37BBF" opacity="0.07"/><circle cx="796" cy="234" r="2" fill="#B37BBF" opacity="0.07"/><circle cx="796" cy="286" r="2" fill="#B37BBF" opacity="0.07"/><circle cx="796" cy="338" r="2" fill="#B37BBF" opacity="0.07"/><circle cx="796" cy="390" r="2" fill="#B37BBF" opacity="0.07"/><circle cx="796" cy="442" r="2" fill="#B37BBF" opacity="0.07"/><circle cx="848" cy="130" r="2" fill="#B37BBF" opacity="0.07"/><circle cx="848" cy="182" r="2" fill="#B37BBF" opacity="0.07"/><circle cx="848" cy="234" r="2" fill="#B37BBF" opacity="0.07"/><circle cx="848" cy="286" r="2" fill="#B37BBF" opacity="0.07"/><circle cx="848" cy="338" r="2" fill="#B37BBF" opacity="0.07"/><circle cx="848" cy="390" r="2" fill="#B37BBF" opacity="0.07"/><circle cx="848" cy="442" r="2" fill="#B37BBF" opacity="0.07"/><circle cx="900" cy="130" r="2" fill="#B37BBF" opacity="0.07"/><circle cx="900" cy="182" r="2" fill="#B37BBF" opacity="0.07"/><circle cx="900" cy="234" r="2" fill="#B37BBF" opacity="0.07"/><circle cx="900" cy="286" r="2" fill="#B37BBF" opacity="0.07"/><circle cx="900" cy="338" r="2" fill="#B37BBF" opacity="0.07"/><circle cx="900" cy="390" r="2" fill="#B37BBF" opacity="0.07"/><circle cx="900" cy="442" r="2" fill="#B37BBF" opacity="0.07"/>
  <line x1="370" y1="250" x2="700" y2="330" stroke="#B37BBF" stroke-width="1.4" opacity=".4"/>
  <rect x="250" y="233" width="120" height="34" rx="8" fill="#152636" stroke="url(#brand)" stroke-width="1.4"/>
  <line x1="270" y1="250" x2="350" y2="250" stroke="#B37BBF" stroke-width="3" opacity=".5"/>
  <line x1="370" y1="330" x2="700" y2="330" stroke="#B37BBF" stroke-width="1.4" opacity=".4"/>
  <rect x="250" y="313" width="120" height="34" rx="8" fill="#152636" stroke="url(#brand)" stroke-width="1.4"/>
  <line x1="270" y1="330" x2="350" y2="330" stroke="#B37BBF" stroke-width="3" opacity=".5"/>
  <line x1="370" y1="410" x2="700" y2="330" stroke="#B37BBF" stroke-width="1.4" opacity=".4"/>
  <rect x="250" y="393" width="120" height="34" rx="8" fill="#152636" stroke="url(#brand)" stroke-width="1.4"/>
  <line x1="270" y1="410" x2="350" y2="410" stroke="#B37BBF" stroke-width="3" opacity=".5"/>
  <path d="M820,180 L940,230 L940,350 Q940,450 820,500 Q700,450 700,350 L700,230 Z" fill="url(#brand)" opacity=".15"/>
  <path d="M820,180 L940,230 L940,350 Q940,450 820,500 Q700,450 700,350 L700,230 Z" fill="none" stroke="url(#brand)" stroke-width="2.5"/>
  <path d="M772,330 l34,40 l68,-82" fill="none" stroke="url(#green)" stroke-width="9" stroke-linecap="round" stroke-linejoin="round"/>
</svg>
