<svg viewBox="0 0 1200 675" xmlns="http://www.w3.org/2000/svg" role="img" aria-label="Curva de generacion y datos del Coordinador Electrico" preserveAspectRatio="xMidYMid slice">
  <defs>
    <linearGradient id="bg" x1="0" y1="0" x2="1" y2="1">
      <stop offset="0" stop-color="#0D0D14"/><stop offset=".5" stop-color="#161A2E"/><stop offset="1" stop-color="#0B0B12"/>
    </linearGradient>
    <linearGradient id="brand" x1="0" y1="0" x2="1" y2="1">
      <stop offset="0" stop-color="#D4A5E0"/><stop offset=".5" stop-color="#B37BBF"/><stop offset="1" stop-color="#9B61A4"/>
    </linearGradient>
    <linearGradient id="green" x1="0" y1="0" x2="1" y2="1">
      <stop offset="0" stop-color="#26E0C0"/><stop offset="1" stop-color="#04C7AA"/>
    </linearGradient>
    <radialGradient id="glow" cx=".72" cy=".22" r=".75">
      <stop offset="0" stop-color="#9B61A4" stop-opacity=".40"/><stop offset="1" stop-color="#9B61A4" stop-opacity="0"/>
    </radialGradient>
    <radialGradient id="glow2" cx=".2" cy=".85" r=".6">
      <stop offset="0" stop-color="#04C7AA" stop-opacity=".18"/><stop offset="1" stop-color="#04C7AA" stop-opacity="0"/>
    </radialGradient>
  </defs>
  <rect width="1200" height="675" fill="url(#bg)"/>
  <rect width="1200" height="675" fill="url(#glow)"/>
  <rect width="1200" height="675" fill="url(#glow2)"/>
  <circle cx="120" cy="130" r="2" fill="#B37BBF" opacity="0.07"/><circle cx="120" cy="182" r="2" fill="#B37BBF" opacity="0.07"/><circle cx="120" cy="234" r="2" fill="#B37BBF" opacity="0.07"/><circle cx="120" cy="286" r="2" fill="#B37BBF" opacity="0.07"/><circle cx="120" cy="338" r="2" fill="#B37BBF" opacity="0.07"/><circle cx="172" cy="130" r="2" fill="#B37BBF" opacity="0.07"/><circle cx="172" cy="182" r="2" fill="#B37BBF" opacity="0.07"/><circle cx="172" cy="234" r="2" fill="#B37BBF" opacity="0.07"/><circle cx="172" cy="286" r="2" fill="#B37BBF" opacity="0.07"/><circle cx="172" cy="338" r="2" fill="#B37BBF" opacity="0.07"/><circle cx="224" cy="130" r="2" fill="#B37BBF" opacity="0.07"/><circle cx="224" cy="182" r="2" fill="#B37BBF" opacity="0.07"/><circle cx="224" cy="234" r="2" fill="#B37BBF" opacity="0.07"/><circle cx="224" cy="286" r="2" fill="#B37BBF" opacity="0.07"/><circle cx="224" cy="338" r="2" fill="#B37BBF" opacity="0.07"/><circle cx="276" cy="130" r="2" fill="#B37BBF" opacity="0.07"/><circle cx="276" cy="182" r="2" fill="#B37BBF" opacity="0.07"/><circle cx="276" cy="234" r="2" fill="#B37BBF" opacity="0.07"/><circle cx="276" cy="286" r="2" fill="#B37BBF" opacity="0.07"/><circle cx="276" cy="338" r="2" fill="#B37BBF" opacity="0.07"/><circle cx="328" cy="130" r="2" fill="#B37BBF" opacity="0.07"/><circle cx="328" cy="182" r="2" fill="#B37BBF" opacity="0.07"/><circle cx="328" cy="234" r="2" fill="#B37BBF" opacity="0.07"/><circle cx="328" cy="286" r="2" fill="#B37BBF" opacity="0.07"/><circle cx="328" cy="338" r="2" fill="#B37BBF" opacity="0.07"/><circle cx="380" cy="130" r="2" fill="#B37BBF" opacity="0.07"/><circle cx="380" cy="182" r="2" fill="#B37BBF" opacity="0.07"/><circle cx="380" cy="234" r="2" fill="#B37BBF" opacity="0.07"/><circle cx="380" cy="286" r="2" fill="#B37BBF" opacity="0.07"/><circle cx="380" cy="338" r="2" fill="#B37BBF" opacity="0.07"/><circle cx="432" cy="130" r="2" fill="#B37BBF" opacity="0.07"/><circle cx="432" cy="182" r="2" fill="#B37BBF" opacity="0.07"/><circle cx="432" cy="234" r="2" fill="#B37BBF" opacity="0.07"/><circle cx="432" cy="286" r="2" fill="#B37BBF" opacity="0.07"/><circle cx="432" cy="338" r="2" fill="#B37BBF" opacity="0.07"/><circle cx="484" cy="130" r="2" fill="#B37BBF" opacity="0.07"/><circle cx="484" cy="182" r="2" fill="#B37BBF" opacity="0.07"/><circle cx="484" cy="234" r="2" fill="#B37BBF" opacity="0.07"/><circle cx="484" cy="286" r="2" fill="#B37BBF" opacity="0.07"/><circle cx="484" cy="338" r="2" fill="#B37BBF" opacity="0.07"/><circle cx="536" cy="130" r="2" fill="#B37BBF" opacity="0.07"/><circle cx="536" cy="182" r="2" fill="#B37BBF" opacity="0.07"/><circle cx="536" cy="234" r="2" fill="#B37BBF" opacity="0.07"/><circle cx="536" cy="286" r="2" fill="#B37BBF" opacity="0.07"/><circle cx="536" cy="338" r="2" fill="#B37BBF" opacity="0.07"/><circle cx="588" cy="130" r="2" fill="#B37BBF" opacity="0.07"/><circle cx="588" cy="182" r="2" fill="#B37BBF" opacity="0.07"/><circle cx="588" cy="234" r="2" fill="#B37BBF" opacity="0.07"/><circle cx="588" cy="286" r="2" fill="#B37BBF" opacity="0.07"/><circle cx="588" cy="338" r="2" fill="#B37BBF" opacity="0.07"/><circle cx="640" cy="130" r="2" fill="#B37BBF" opacity="0.07"/><circle cx="640" cy="182" r="2" fill="#B37BBF" opacity="0.07"/><circle cx="640" cy="234" r="2" fill="#B37BBF" opacity="0.07"/><circle cx="640" cy="286" r="2" fill="#B37BBF" opacity="0.07"/><circle cx="640" cy="338" r="2" fill="#B37BBF" opacity="0.07"/><circle cx="692" cy="130" r="2" fill="#B37BBF" opacity="0.07"/><circle cx="692" cy="182" r="2" fill="#B37BBF" opacity="0.07"/><circle cx="692" cy="234" r="2" fill="#B37BBF" opacity="0.07"/><circle cx="692" cy="286" r="2" fill="#B37BBF" opacity="0.07"/><circle cx="692" cy="338" r="2" fill="#B37BBF" opacity="0.07"/><circle cx="744" cy="130" r="2" fill="#B37BBF" opacity="0.07"/><circle cx="744" cy="182" r="2" fill="#B37BBF" opacity="0.07"/><circle cx="744" cy="234" r="2" fill="#B37BBF" opacity="0.07"/><circle cx="744" cy="286" r="2" fill="#B37BBF" opacity="0.07"/><circle cx="744" cy="338" r="2" fill="#B37BBF" opacity="0.07"/><circle cx="796" cy="130" r="2" fill="#B37BBF" opacity="0.07"/><circle cx="796" cy="182" r="2" fill="#B37BBF" opacity="0.07"/><circle cx="796" cy="234" r="2" fill="#B37BBF" opacity="0.07"/><circle cx="796" cy="286" r="2" fill="#B37BBF" opacity="0.07"/><circle cx="796" cy="338" r="2" fill="#B37BBF" opacity="0.07"/><circle cx="848" cy="130" r="2" fill="#B37BBF" opacity="0.07"/><circle cx="848" cy="182" r="2" fill="#B37BBF" opacity="0.07"/><circle cx="848" cy="234" r="2" fill="#B37BBF" opacity="0.07"/><circle cx="848" cy="286" r="2" fill="#B37BBF" opacity="0.07"/><circle cx="848" cy="338" r="2" fill="#B37BBF" opacity="0.07"/><circle cx="900" cy="130" r="2" fill="#B37BBF" opacity="0.07"/><circle cx="900" cy="182" r="2" fill="#B37BBF" opacity="0.07"/><circle cx="900" cy="234" r="2" fill="#B37BBF" opacity="0.07"/><circle cx="900" cy="286" r="2" fill="#B37BBF" opacity="0.07"/><circle cx="900" cy="338" r="2" fill="#B37BBF" opacity="0.07"/><circle cx="952" cy="130" r="2" fill="#B37BBF" opacity="0.07"/><circle cx="952" cy="182" r="2" fill="#B37BBF" opacity="0.07"/><circle cx="952" cy="234" r="2" fill="#B37BBF" opacity="0.07"/><circle cx="952" cy="286" r="2" fill="#B37BBF" opacity="0.07"/><circle cx="952" cy="338" r="2" fill="#B37BBF" opacity="0.07"/><circle cx="1004" cy="130" r="2" fill="#B37BBF" opacity="0.07"/><circle cx="1004" cy="182" r="2" fill="#B37BBF" opacity="0.07"/><circle cx="1004" cy="234" r="2" fill="#B37BBF" opacity="0.07"/><circle cx="1004" cy="286" r="2" fill="#B37BBF" opacity="0.07"/><circle cx="1004" cy="338" r="2" fill="#B37BBF" opacity="0.07"/>
  <line x1="150" y1="120" x2="150" y2="600" stroke="#B37BBF" stroke-width="1" opacity=".08"/>
  <line x1="300" y1="120" x2="300" y2="600" stroke="#B37BBF" stroke-width="1" opacity=".08"/>
  <line x1="450" y1="120" x2="450" y2="600" stroke="#B37BBF" stroke-width="1" opacity=".08"/>
  <line x1="600" y1="120" x2="600" y2="600" stroke="#B37BBF" stroke-width="1" opacity=".08"/>
  <line x1="750" y1="120" x2="750" y2="600" stroke="#B37BBF" stroke-width="1" opacity=".08"/>
  <line x1="900" y1="120" x2="900" y2="600" stroke="#B37BBF" stroke-width="1" opacity=".08"/>
  <line x1="1050" y1="120" x2="1050" y2="600" stroke="#B37BBF" stroke-width="1" opacity=".08"/>
  <path d="M0,675 L0,380.0 L0,380.0 L12,370.4 L24,360.9 L36,351.6 L48,342.4 L60,333.6 L72,325.2 L84,317.2 L96,309.8 L108,302.9 L120,296.6 L132,291.0 L144,286.1 L156,281.9 L168,278.5 L180,275.9 L192,274.1 L204,273.1 L216,272.9 L228,273.4 L240,274.7 L252,276.8 L264,279.5 L276,282.9 L288,286.9 L300,291.5 L312,296.6 L324,302.1 L336,308.0 L348,314.2 L360,320.7 L372,327.3 L384,334.1 L396,340.8 L408,347.6 L420,354.2 L432,360.7 L444,367.0 L456,372.9 L468,378.5 L480,383.8 L492,388.6 L504,392.9 L516,396.8 L528,400.1 L540,402.9 L552,405.1 L564,406.8 L576,408.0 L588,408.6 L600,408.6 L612,408.2 L624,407.3 L636,406.0 L648,404.3 L660,402.2 L672,399.8 L684,397.2 L696,394.4 L708,391.5 L720,388.5 L732,385.4 L744,382.4 L756,379.5 L768,376.8 L780,374.3 L792,372.0 L804,370.0 L816,368.5 L828,367.3 L840,366.5 L852,366.2 L864,366.4 L876,367.1 L888,368.3 L900,370.0 L912,372.2 L924,374.9 L936,378.1 L948,381.7 L960,385.8 L972,390.3 L984,395.1 L996,400.2 L1008,405.6 L1020,411.2 L1032,416.9 L1044,422.7 L1056,428.5 L1068,434.2 L1080,439.8 L1092,445.2 L1104,450.4 L1116,455.2 L1128,459.7 L1140,463.7 L1152,467.2 L1164,470.1 L1176,472.4 L1188,474.1 L1200,475.1 L1200,675 Z" fill="url(#brand)" opacity=".14"/>
  <polyline points="0,380.0 12,370.4 24,360.9 36,351.6 48,342.4 60,333.6 72,325.2 84,317.2 96,309.8 108,302.9 120,296.6 132,291.0 144,286.1 156,281.9 168,278.5 180,275.9 192,274.1 204,273.1 216,272.9 228,273.4 240,274.7 252,276.8 264,279.5 276,282.9 288,286.9 300,291.5 312,296.6 324,302.1 336,308.0 348,314.2 360,320.7 372,327.3 384,334.1 396,340.8 408,347.6 420,354.2 432,360.7 444,367.0 456,372.9 468,378.5 480,383.8 492,388.6 504,392.9 516,396.8 528,400.1 540,402.9 552,405.1 564,406.8 576,408.0 588,408.6 600,408.6 612,408.2 624,407.3 636,406.0 648,404.3 660,402.2 672,399.8 684,397.2 696,394.4 708,391.5 720,388.5 732,385.4 744,382.4 756,379.5 768,376.8 780,374.3 792,372.0 804,370.0 816,368.5 828,367.3 840,366.5 852,366.2 864,366.4 876,367.1 888,368.3 900,370.0 912,372.2 924,374.9 936,378.1 948,381.7 960,385.8 972,390.3 984,395.1 996,400.2 1008,405.6 1020,411.2 1032,416.9 1044,422.7 1056,428.5 1068,434.2 1080,439.8 1092,445.2 1104,450.4 1116,455.2 1128,459.7 1140,463.7 1152,467.2 1164,470.1 1176,472.4 1188,474.1 1200,475.1" fill="none" stroke="url(#brand)" stroke-width="3"/>
  <circle cx="144" cy="286.1" r="6" fill="#0D0D14" stroke="url(#green)" stroke-width="2.5"/>
  <circle cx="156" cy="281.9" r="6" fill="#0D0D14" stroke="url(#green)" stroke-width="2.5"/>
  <circle cx="168" cy="278.5" r="6" fill="#0D0D14" stroke="url(#green)" stroke-width="2.5"/>
  <circle cx="180" cy="275.9" r="6" fill="#0D0D14" stroke="url(#green)" stroke-width="2.5"/>
  <circle cx="192" cy="274.1" r="6" fill="#0D0D14" stroke="url(#green)" stroke-width="2.5"/>
  <circle cx="204" cy="273.1" r="6" fill="#0D0D14" stroke="url(#green)" stroke-width="2.5"/>
  <circle cx="216" cy="272.9" r="6" fill="#0D0D14" stroke="url(#green)" stroke-width="2.5"/>
  <circle cx="228" cy="273.4" r="6" fill="#0D0D14" stroke="url(#green)" stroke-width="2.5"/>
  <circle cx="240" cy="274.7" r="6" fill="#0D0D14" stroke="url(#green)" stroke-width="2.5"/>
  <circle cx="252" cy="276.8" r="6" fill="#0D0D14" stroke="url(#green)" stroke-width="2.5"/>
  <circle cx="264" cy="279.5" r="6" fill="#0D0D14" stroke="url(#green)" stroke-width="2.5"/>
  <circle cx="276" cy="282.9" r="6" fill="#0D0D14" stroke="url(#green)" stroke-width="2.5"/>
</svg>
