<svg viewBox="0 0 1200 675" xmlns="http://www.w3.org/2000/svg" role="img" aria-label="Consolidacion financiera en un dashboard" preserveAspectRatio="xMidYMid slice">
  <defs>
    <linearGradient id="bg" x1="0" y1="0" x2="1" y2="1">
      <stop offset="0" stop-color="#0D0D14"/><stop offset=".5" stop-color="#161A2E"/><stop offset="1" stop-color="#0B0B12"/>
    </linearGradient>
    <linearGradient id="brand" x1="0" y1="0" x2="1" y2="1">
      <stop offset="0" stop-color="#D4A5E0"/><stop offset=".5" stop-color="#B37BBF"/><stop offset="1" stop-color="#9B61A4"/>
    </linearGradient>
    <linearGradient id="green" x1="0" y1="0" x2="1" y2="1">
      <stop offset="0" stop-color="#26E0C0"/><stop offset="1" stop-color="#04C7AA"/>
    </linearGradient>
    <radialGradient id="glow" cx=".72" cy=".22" r=".75">
      <stop offset="0" stop-color="#9B61A4" stop-opacity=".40"/><stop offset="1" stop-color="#9B61A4" stop-opacity="0"/>
    </radialGradient>
    <radialGradient id="glow2" cx=".2" cy=".85" r=".6">
      <stop offset="0" stop-color="#04C7AA" stop-opacity=".18"/><stop offset="1" stop-color="#04C7AA" stop-opacity="0"/>
    </radialGradient>
  </defs>
  <rect width="1200" height="675" fill="url(#bg)"/>
  <rect width="1200" height="675" fill="url(#glow)"/>
  <rect width="1200" height="675" fill="url(#glow2)"/>
  <circle cx="120" cy="130" r="2" fill="#B37BBF" opacity="0.07"/><circle cx="120" cy="180" r="2" fill="#B37BBF" opacity="0.07"/><circle cx="120" cy="230" r="2" fill="#B37BBF" opacity="0.07"/><circle cx="120" cy="280" r="2" fill="#B37BBF" opacity="0.07"/><circle cx="120" cy="330" r="2" fill="#B37BBF" opacity="0.07"/><circle cx="120" cy="380" r="2" fill="#B37BBF" opacity="0.07"/><circle cx="170" cy="130" r="2" fill="#B37BBF" opacity="0.07"/><circle cx="170" cy="180" r="2" fill="#B37BBF" opacity="0.07"/><circle cx="170" cy="230" r="2" fill="#B37BBF" opacity="0.07"/><circle cx="170" cy="280" r="2" fill="#B37BBF" opacity="0.07"/><circle cx="170" cy="330" r="2" fill="#B37BBF" opacity="0.07"/><circle cx="170" cy="380" r="2" fill="#B37BBF" opacity="0.07"/><circle cx="220" cy="130" r="2" fill="#B37BBF" opacity="0.07"/><circle cx="220" cy="180" r="2" fill="#B37BBF" opacity="0.07"/><circle cx="220" cy="230" r="2" fill="#B37BBF" opacity="0.07"/><circle cx="220" cy="280" r="2" fill="#B37BBF" opacity="0.07"/><circle cx="220" cy="330" r="2" fill="#B37BBF" opacity="0.07"/><circle cx="220" cy="380" r="2" fill="#B37BBF" opacity="0.07"/><circle cx="270" cy="130" r="2" fill="#B37BBF" opacity="0.07"/><circle cx="270" cy="180" r="2" fill="#B37BBF" opacity="0.07"/><circle cx="270" cy="230" r="2" fill="#B37BBF" opacity="0.07"/><circle cx="270" cy="280" r="2" fill="#B37BBF" opacity="0.07"/><circle cx="270" cy="330" r="2" fill="#B37BBF" opacity="0.07"/><circle cx="270" cy="380" r="2" fill="#B37BBF" opacity="0.07"/><circle cx="320" cy="130" r="2" fill="#B37BBF" opacity="0.07"/><circle cx="320" cy="180" r="2" fill="#B37BBF" opacity="0.07"/><circle cx="320" cy="230" r="2" fill="#B37BBF" opacity="0.07"/><circle cx="320" cy="280" r="2" fill="#B37BBF" opacity="0.07"/><circle cx="320" cy="330" r="2" fill="#B37BBF" opacity="0.07"/><circle cx="320" cy="380" r="2" fill="#B37BBF" opacity="0.07"/><circle cx="370" cy="130" r="2" fill="#B37BBF" opacity="0.07"/><circle cx="370" cy="180" r="2" fill="#B37BBF" opacity="0.07"/><circle cx="370" cy="230" r="2" fill="#B37BBF" opacity="0.07"/><circle cx="370" cy="280" r="2" fill="#B37BBF" opacity="0.07"/><circle cx="370" cy="330" r="2" fill="#B37BBF" opacity="0.07"/><circle cx="370" cy="380" r="2" fill="#B37BBF" opacity="0.07"/><circle cx="420" cy="130" r="2" fill="#B37BBF" opacity="0.07"/><circle cx="420" cy="180" r="2" fill="#B37BBF" opacity="0.07"/><circle cx="420" cy="230" r="2" fill="#B37BBF" opacity="0.07"/><circle cx="420" cy="280" r="2" fill="#B37BBF" opacity="0.07"/><circle cx="420" cy="330" r="2" fill="#B37BBF" opacity="0.07"/><circle cx="420" cy="380" r="2" fill="#B37BBF" opacity="0.07"/><circle cx="470" cy="130" r="2" fill="#B37BBF" opacity="0.07"/><circle cx="470" cy="180" r="2" fill="#B37BBF" opacity="0.07"/><circle cx="470" cy="230" r="2" fill="#B37BBF" opacity="0.07"/><circle cx="470" cy="280" r="2" fill="#B37BBF" opacity="0.07"/><circle cx="470" cy="330" r="2" fill="#B37BBF" opacity="0.07"/><circle cx="470" cy="380" r="2" fill="#B37BBF" opacity="0.07"/><circle cx="520" cy="130" r="2" fill="#B37BBF" opacity="0.07"/><circle cx="520" cy="180" r="2" fill="#B37BBF" opacity="0.07"/><circle cx="520" cy="230" r="2" fill="#B37BBF" opacity="0.07"/><circle cx="520" cy="280" r="2" fill="#B37BBF" opacity="0.07"/><circle cx="520" cy="330" r="2" fill="#B37BBF" opacity="0.07"/><circle cx="520" cy="380" r="2" fill="#B37BBF" opacity="0.07"/><circle cx="570" cy="130" r="2" fill="#B37BBF" opacity="0.07"/><circle cx="570" cy="180" r="2" fill="#B37BBF" opacity="0.07"/><circle cx="570" cy="230" r="2" fill="#B37BBF" opacity="0.07"/><circle cx="570" cy="280" r="2" fill="#B37BBF" opacity="0.07"/><circle cx="570" cy="330" r="2" fill="#B37BBF" opacity="0.07"/><circle cx="570" cy="380" r="2" fill="#B37BBF" opacity="0.07"/><circle cx="620" cy="130" r="2" fill="#B37BBF" opacity="0.07"/><circle cx="620" cy="180" r="2" fill="#B37BBF" opacity="0.07"/><circle cx="620" cy="230" r="2" fill="#B37BBF" opacity="0.07"/><circle cx="620" cy="280" r="2" fill="#B37BBF" opacity="0.07"/><circle cx="620" cy="330" r="2" fill="#B37BBF" opacity="0.07"/><circle cx="620" cy="380" r="2" fill="#B37BBF" opacity="0.07"/><circle cx="670" cy="130" r="2" fill="#B37BBF" opacity="0.07"/><circle cx="670" cy="180" r="2" fill="#B37BBF" opacity="0.07"/><circle cx="670" cy="230" r="2" fill="#B37BBF" opacity="0.07"/><circle cx="670" cy="280" r="2" fill="#B37BBF" opacity="0.07"/><circle cx="670" cy="330" r="2" fill="#B37BBF" opacity="0.07"/><circle cx="670" cy="380" r="2" fill="#B37BBF" opacity="0.07"/><circle cx="720" cy="130" r="2" fill="#B37BBF" opacity="0.07"/><circle cx="720" cy="180" r="2" fill="#B37BBF" opacity="0.07"/><circle cx="720" cy="230" r="2" fill="#B37BBF" opacity="0.07"/><circle cx="720" cy="280" r="2" fill="#B37BBF" opacity="0.07"/><circle cx="720" cy="330" r="2" fill="#B37BBF" opacity="0.07"/><circle cx="720" cy="380" r="2" fill="#B37BBF" opacity="0.07"/><circle cx="770" cy="130" r="2" fill="#B37BBF" opacity="0.07"/><circle cx="770" cy="180" r="2" fill="#B37BBF" opacity="0.07"/><circle cx="770" cy="230" r="2" fill="#B37BBF" opacity="0.07"/><circle cx="770" cy="280" r="2" fill="#B37BBF" opacity="0.07"/><circle cx="770" cy="330" r="2" fill="#B37BBF" opacity="0.07"/><circle cx="770" cy="380" r="2" fill="#B37BBF" opacity="0.07"/><circle cx="820" cy="130" r="2" fill="#B37BBF" opacity="0.07"/><circle cx="820" cy="180" r="2" fill="#B37BBF" opacity="0.07"/><circle cx="820" cy="230" r="2" fill="#B37BBF" opacity="0.07"/><circle cx="820" cy="280" r="2" fill="#B37BBF" opacity="0.07"/><circle cx="820" cy="330" r="2" fill="#B37BBF" opacity="0.07"/><circle cx="820" cy="380" r="2" fill="#B37BBF" opacity="0.07"/><circle cx="870" cy="130" r="2" fill="#B37BBF" opacity="0.07"/><circle cx="870" cy="180" r="2" fill="#B37BBF" opacity="0.07"/><circle cx="870" cy="230" r="2" fill="#B37BBF" opacity="0.07"/><circle cx="870" cy="280" r="2" fill="#B37BBF" opacity="0.07"/><circle cx="870" cy="330" r="2" fill="#B37BBF" opacity="0.07"/><circle cx="870" cy="380" r="2" fill="#B37BBF" opacity="0.07"/><circle cx="920" cy="130" r="2" fill="#B37BBF" opacity="0.07"/><circle cx="920" cy="180" r="2" fill="#B37BBF" opacity="0.07"/><circle cx="920" cy="230" r="2" fill="#B37BBF" opacity="0.07"/><circle cx="920" cy="280" r="2" fill="#B37BBF" opacity="0.07"/><circle cx="920" cy="330" r="2" fill="#B37BBF" opacity="0.07"/><circle cx="920" cy="380" r="2" fill="#B37BBF" opacity="0.07"/><circle cx="970" cy="130" r="2" fill="#B37BBF" opacity="0.07"/><circle cx="970" cy="180" r="2" fill="#B37BBF" opacity="0.07"/><circle cx="970" cy="230" r="2" fill="#B37BBF" opacity="0.07"/><circle cx="970" cy="280" r="2" fill="#B37BBF" opacity="0.07"/><circle cx="970" cy="330" r="2" fill="#B37BBF" opacity="0.07"/><circle cx="970" cy="380" r="2" fill="#B37BBF" opacity="0.07"/>
  <line x1="260" y1="450" x2="980" y2="450" stroke="#B37BBF" stroke-width="1" opacity=".10"/>
  <line x1="260" y1="360" x2="980" y2="360" stroke="#B37BBF" stroke-width="1" opacity=".10"/>
  <line x1="260" y1="270" x2="980" y2="270" stroke="#B37BBF" stroke-width="1" opacity=".10"/>
  <line x1="260" y1="180" x2="980" y2="180" stroke="#B37BBF" stroke-width="1" opacity=".10"/>
  <rect x="300" y="420" width="46" height="120" rx="6" fill="url(#brand)" opacity=".9"/>
  <rect x="390" y="450" width="46" height="90" rx="6" fill="url(#brand)" opacity=".9"/>
  <rect x="480" y="370" width="46" height="170" rx="6" fill="url(#brand)" opacity=".9"/>
  <rect x="570" y="400" width="46" height="140" rx="6" fill="url(#brand)" opacity=".9"/>
  <rect x="660" y="320" width="46" height="220" rx="6" fill="url(#green)" opacity=".9"/>
  <rect x="750" y="340" width="46" height="200" rx="6" fill="url(#brand)" opacity=".9"/>
  <rect x="840" y="250" width="46" height="290" rx="6" fill="url(#green)" opacity=".9"/>
  <polyline points="323,402 413,432 503,352 593,382 683,302 773,322 863,232" fill="none" stroke="#26E0C0" stroke-width="2.5" opacity=".8" stroke-linecap="round"/>
  <circle cx="323" cy="402" r="4" fill="#26E0C0"/>
  <circle cx="413" cy="432" r="4" fill="#26E0C0"/>
  <circle cx="503" cy="352" r="4" fill="#26E0C0"/>
  <circle cx="593" cy="382" r="4" fill="#26E0C0"/>
  <circle cx="683" cy="302" r="4" fill="#26E0C0"/>
  <circle cx="773" cy="322" r="4" fill="#26E0C0"/>
  <circle cx="863" cy="232" r="4" fill="#26E0C0"/>
  <line x1="260" y1="540" x2="980" y2="540" stroke="url(#brand)" stroke-width="2.5"/>
</svg>
