<svg viewBox="0 0 1200 675" xmlns="http://www.w3.org/2000/svg" role="img" aria-label="Servidor MCP conectando datos a un modelo de IA" preserveAspectRatio="xMidYMid slice">
  <defs>
    <linearGradient id="bg" x1="0" y1="0" x2="1" y2="1">
      <stop offset="0" stop-color="#0D0D14"/><stop offset=".5" stop-color="#161A2E"/><stop offset="1" stop-color="#0B0B12"/>
    </linearGradient>
    <linearGradient id="brand" x1="0" y1="0" x2="1" y2="1">
      <stop offset="0" stop-color="#D4A5E0"/><stop offset=".5" stop-color="#B37BBF"/><stop offset="1" stop-color="#9B61A4"/>
    </linearGradient>
    <linearGradient id="green" x1="0" y1="0" x2="1" y2="1">
      <stop offset="0" stop-color="#26E0C0"/><stop offset="1" stop-color="#04C7AA"/>
    </linearGradient>
    <radialGradient id="glow" cx=".72" cy=".22" r=".75">
      <stop offset="0" stop-color="#9B61A4" stop-opacity=".40"/><stop offset="1" stop-color="#9B61A4" stop-opacity="0"/>
    </radialGradient>
    <radialGradient id="glow2" cx=".2" cy=".85" r=".6">
      <stop offset="0" stop-color="#04C7AA" stop-opacity=".18"/><stop offset="1" stop-color="#04C7AA" stop-opacity="0"/>
    </radialGradient>
  </defs>
  <rect width="1200" height="675" fill="url(#bg)"/>
  <rect width="1200" height="675" fill="url(#glow)"/>
  <rect width="1200" height="675" fill="url(#glow2)"/>
  <circle cx="120" cy="120" r="2" fill="#B37BBF" opacity="0.07"/><circle cx="120" cy="172" r="2" fill="#B37BBF" opacity="0.07"/><circle cx="120" cy="224" r="2" fill="#B37BBF" opacity="0.07"/><circle cx="120" cy="276" r="2" fill="#B37BBF" opacity="0.07"/><circle cx="120" cy="328" r="2" fill="#B37BBF" opacity="0.07"/><circle cx="120" cy="380" r="2" fill="#B37BBF" opacity="0.07"/><circle cx="120" cy="432" r="2" fill="#B37BBF" opacity="0.07"/><circle cx="120" cy="484" r="2" fill="#B37BBF" opacity="0.07"/><circle cx="120" cy="536" r="2" fill="#B37BBF" opacity="0.07"/><circle cx="120" cy="588" r="2" fill="#B37BBF" opacity="0.07"/><circle cx="120" cy="640" r="2" fill="#B37BBF" opacity="0.07"/><circle cx="120" cy="692" r="2" fill="#B37BBF" opacity="0.07"/><circle cx="172" cy="120" r="2" fill="#B37BBF" opacity="0.07"/><circle cx="172" cy="172" r="2" fill="#B37BBF" opacity="0.07"/><circle cx="172" cy="224" r="2" fill="#B37BBF" opacity="0.07"/><circle cx="172" cy="276" r="2" fill="#B37BBF" opacity="0.07"/><circle cx="172" cy="328" r="2" fill="#B37BBF" opacity="0.07"/><circle cx="172" cy="380" r="2" fill="#B37BBF" opacity="0.07"/><circle cx="172" cy="432" r="2" fill="#B37BBF" opacity="0.07"/><circle cx="172" cy="484" r="2" fill="#B37BBF" opacity="0.07"/><circle cx="172" cy="536" r="2" fill="#B37BBF" opacity="0.07"/><circle cx="172" cy="588" r="2" fill="#B37BBF" opacity="0.07"/><circle cx="172" cy="640" r="2" fill="#B37BBF" opacity="0.07"/><circle cx="172" cy="692" r="2" fill="#B37BBF" opacity="0.07"/><circle cx="224" cy="120" r="2" fill="#B37BBF" opacity="0.07"/><circle cx="224" cy="172" r="2" fill="#B37BBF" opacity="0.07"/><circle cx="224" cy="224" r="2" fill="#B37BBF" opacity="0.07"/><circle cx="224" cy="276" r="2" fill="#B37BBF" opacity="0.07"/><circle cx="224" cy="328" r="2" fill="#B37BBF" opacity="0.07"/><circle cx="224" cy="380" r="2" fill="#B37BBF" opacity="0.07"/><circle cx="224" cy="432" r="2" fill="#B37BBF" opacity="0.07"/><circle cx="224" cy="484" r="2" fill="#B37BBF" opacity="0.07"/><circle cx="224" cy="536" r="2" fill="#B37BBF" opacity="0.07"/><circle cx="224" cy="588" r="2" fill="#B37BBF" opacity="0.07"/><circle cx="224" cy="640" r="2" fill="#B37BBF" opacity="0.07"/><circle cx="224" cy="692" r="2" fill="#B37BBF" opacity="0.07"/><circle cx="276" cy="120" r="2" fill="#B37BBF" opacity="0.07"/><circle cx="276" cy="172" r="2" fill="#B37BBF" opacity="0.07"/><circle cx="276" cy="224" r="2" fill="#B37BBF" opacity="0.07"/><circle cx="276" cy="276" r="2" fill="#B37BBF" opacity="0.07"/><circle cx="276" cy="328" r="2" fill="#B37BBF" opacity="0.07"/><circle cx="276" cy="380" r="2" fill="#B37BBF" opacity="0.07"/><circle cx="276" cy="432" r="2" fill="#B37BBF" opacity="0.07"/><circle cx="276" cy="484" r="2" fill="#B37BBF" opacity="0.07"/><circle cx="276" cy="536" r="2" fill="#B37BBF" opacity="0.07"/><circle cx="276" cy="588" r="2" fill="#B37BBF" opacity="0.07"/><circle cx="276" cy="640" r="2" fill="#B37BBF" opacity="0.07"/><circle cx="276" cy="692" r="2" fill="#B37BBF" opacity="0.07"/><circle cx="328" cy="120" r="2" fill="#B37BBF" opacity="0.07"/><circle cx="328" cy="172" r="2" fill="#B37BBF" opacity="0.07"/><circle cx="328" cy="224" r="2" fill="#B37BBF" opacity="0.07"/><circle cx="328" cy="276" r="2" fill="#B37BBF" opacity="0.07"/><circle cx="328" cy="328" r="2" fill="#B37BBF" opacity="0.07"/><circle cx="328" cy="380" r="2" fill="#B37BBF" opacity="0.07"/><circle cx="328" cy="432" r="2" fill="#B37BBF" opacity="0.07"/><circle cx="328" cy="484" r="2" fill="#B37BBF" opacity="0.07"/><circle cx="328" cy="536" r="2" fill="#B37BBF" opacity="0.07"/><circle cx="328" cy="588" r="2" fill="#B37BBF" opacity="0.07"/><circle cx="328" cy="640" r="2" fill="#B37BBF" opacity="0.07"/><circle cx="328" cy="692" r="2" fill="#B37BBF" opacity="0.07"/><circle cx="380" cy="120" r="2" fill="#B37BBF" opacity="0.07"/><circle cx="380" cy="172" r="2" fill="#B37BBF" opacity="0.07"/><circle cx="380" cy="224" r="2" fill="#B37BBF" opacity="0.07"/><circle cx="380" cy="276" r="2" fill="#B37BBF" opacity="0.07"/><circle cx="380" cy="328" r="2" fill="#B37BBF" opacity="0.07"/><circle cx="380" cy="380" r="2" fill="#B37BBF" opacity="0.07"/><circle cx="380" cy="432" r="2" fill="#B37BBF" opacity="0.07"/><circle cx="380" cy="484" r="2" fill="#B37BBF" opacity="0.07"/><circle cx="380" cy="536" r="2" fill="#B37BBF" opacity="0.07"/><circle cx="380" cy="588" r="2" fill="#B37BBF" opacity="0.07"/><circle cx="380" cy="640" r="2" fill="#B37BBF" opacity="0.07"/><circle cx="380" cy="692" r="2" fill="#B37BBF" opacity="0.07"/><circle cx="432" cy="120" r="2" fill="#B37BBF" opacity="0.07"/><circle cx="432" cy="172" r="2" fill="#B37BBF" opacity="0.07"/><circle cx="432" cy="224" r="2" fill="#B37BBF" opacity="0.07"/><circle cx="432" cy="276" r="2" fill="#B37BBF" opacity="0.07"/><circle cx="432" cy="328" r="2" fill="#B37BBF" opacity="0.07"/><circle cx="432" cy="380" r="2" fill="#B37BBF" opacity="0.07"/><circle cx="432" cy="432" r="2" fill="#B37BBF" opacity="0.07"/><circle cx="432" cy="484" r="2" fill="#B37BBF" opacity="0.07"/><circle cx="432" cy="536" r="2" fill="#B37BBF" opacity="0.07"/><circle cx="432" cy="588" r="2" fill="#B37BBF" opacity="0.07"/><circle cx="432" cy="640" r="2" fill="#B37BBF" opacity="0.07"/><circle cx="432" cy="692" r="2" fill="#B37BBF" opacity="0.07"/><circle cx="484" cy="120" r="2" fill="#B37BBF" opacity="0.07"/><circle cx="484" cy="172" r="2" fill="#B37BBF" opacity="0.07"/><circle cx="484" cy="224" r="2" fill="#B37BBF" opacity="0.07"/><circle cx="484" cy="276" r="2" fill="#B37BBF" opacity="0.07"/><circle cx="484" cy="328" r="2" fill="#B37BBF" opacity="0.07"/><circle cx="484" cy="380" r="2" fill="#B37BBF" opacity="0.07"/><circle cx="484" cy="432" r="2" fill="#B37BBF" opacity="0.07"/><circle cx="484" cy="484" r="2" fill="#B37BBF" opacity="0.07"/><circle cx="484" cy="536" r="2" fill="#B37BBF" opacity="0.07"/><circle cx="484" cy="588" r="2" fill="#B37BBF" opacity="0.07"/><circle cx="484" cy="640" r="2" fill="#B37BBF" opacity="0.07"/><circle cx="484" cy="692" r="2" fill="#B37BBF" opacity="0.07"/><circle cx="536" cy="120" r="2" fill="#B37BBF" opacity="0.07"/><circle cx="536" cy="172" r="2" fill="#B37BBF" opacity="0.07"/><circle cx="536" cy="224" r="2" fill="#B37BBF" opacity="0.07"/><circle cx="536" cy="276" r="2" fill="#B37BBF" opacity="0.07"/><circle cx="536" cy="328" r="2" fill="#B37BBF" opacity="0.07"/><circle cx="536" cy="380" r="2" fill="#B37BBF" opacity="0.07"/><circle cx="536" cy="432" r="2" fill="#B37BBF" opacity="0.07"/><circle cx="536" cy="484" r="2" fill="#B37BBF" opacity="0.07"/><circle cx="536" cy="536" r="2" fill="#B37BBF" opacity="0.07"/><circle cx="536" cy="588" r="2" fill="#B37BBF" opacity="0.07"/><circle cx="536" cy="640" r="2" fill="#B37BBF" opacity="0.07"/><circle cx="536" cy="692" r="2" fill="#B37BBF" opacity="0.07"/><circle cx="588" cy="120" r="2" fill="#B37BBF" opacity="0.07"/><circle cx="588" cy="172" r="2" fill="#B37BBF" opacity="0.07"/><circle cx="588" cy="224" r="2" fill="#B37BBF" opacity="0.07"/><circle cx="588" cy="276" r="2" fill="#B37BBF" opacity="0.07"/><circle cx="588" cy="328" r="2" fill="#B37BBF" opacity="0.07"/><circle cx="588" cy="380" r="2" fill="#B37BBF" opacity="0.07"/><circle cx="588" cy="432" r="2" fill="#B37BBF" opacity="0.07"/><circle cx="588" cy="484" r="2" fill="#B37BBF" opacity="0.07"/><circle cx="588" cy="536" r="2" fill="#B37BBF" opacity="0.07"/><circle cx="588" cy="588" r="2" fill="#B37BBF" opacity="0.07"/><circle cx="588" cy="640" r="2" fill="#B37BBF" opacity="0.07"/><circle cx="588" cy="692" r="2" fill="#B37BBF" opacity="0.07"/><circle cx="640" cy="120" r="2" fill="#B37BBF" opacity="0.07"/><circle cx="640" cy="172" r="2" fill="#B37BBF" opacity="0.07"/><circle cx="640" cy="224" r="2" fill="#B37BBF" opacity="0.07"/><circle cx="640" cy="276" r="2" fill="#B37BBF" opacity="0.07"/><circle cx="640" cy="328" r="2" fill="#B37BBF" opacity="0.07"/><circle cx="640" cy="380" r="2" fill="#B37BBF" opacity="0.07"/><circle cx="640" cy="432" r="2" fill="#B37BBF" opacity="0.07"/><circle cx="640" cy="484" r="2" fill="#B37BBF" opacity="0.07"/><circle cx="640" cy="536" r="2" fill="#B37BBF" opacity="0.07"/><circle cx="640" cy="588" r="2" fill="#B37BBF" opacity="0.07"/><circle cx="640" cy="640" r="2" fill="#B37BBF" opacity="0.07"/><circle cx="640" cy="692" r="2" fill="#B37BBF" opacity="0.07"/><circle cx="692" cy="120" r="2" fill="#B37BBF" opacity="0.07"/><circle cx="692" cy="172" r="2" fill="#B37BBF" opacity="0.07"/><circle cx="692" cy="224" r="2" fill="#B37BBF" opacity="0.07"/><circle cx="692" cy="276" r="2" fill="#B37BBF" opacity="0.07"/><circle cx="692" cy="328" r="2" fill="#B37BBF" opacity="0.07"/><circle cx="692" cy="380" r="2" fill="#B37BBF" opacity="0.07"/><circle cx="692" cy="432" r="2" fill="#B37BBF" opacity="0.07"/><circle cx="692" cy="484" r="2" fill="#B37BBF" opacity="0.07"/><circle cx="692" cy="536" r="2" fill="#B37BBF" opacity="0.07"/><circle cx="692" cy="588" r="2" fill="#B37BBF" opacity="0.07"/><circle cx="692" cy="640" r="2" fill="#B37BBF" opacity="0.07"/><circle cx="692" cy="692" r="2" fill="#B37BBF" opacity="0.07"/><circle cx="744" cy="120" r="2" fill="#B37BBF" opacity="0.07"/><circle cx="744" cy="172" r="2" fill="#B37BBF" opacity="0.07"/><circle cx="744" cy="224" r="2" fill="#B37BBF" opacity="0.07"/><circle cx="744" cy="276" r="2" fill="#B37BBF" opacity="0.07"/><circle cx="744" cy="328" r="2" fill="#B37BBF" opacity="0.07"/><circle cx="744" cy="380" r="2" fill="#B37BBF" opacity="0.07"/><circle cx="744" cy="432" r="2" fill="#B37BBF" opacity="0.07"/><circle cx="744" cy="484" r="2" fill="#B37BBF" opacity="0.07"/><circle cx="744" cy="536" r="2" fill="#B37BBF" opacity="0.07"/><circle cx="744" cy="588" r="2" fill="#B37BBF" opacity="0.07"/><circle cx="744" cy="640" r="2" fill="#B37BBF" opacity="0.07"/><circle cx="744" cy="692" r="2" fill="#B37BBF" opacity="0.07"/><circle cx="796" cy="120" r="2" fill="#B37BBF" opacity="0.07"/><circle cx="796" cy="172" r="2" fill="#B37BBF" opacity="0.07"/><circle cx="796" cy="224" r="2" fill="#B37BBF" opacity="0.07"/><circle cx="796" cy="276" r="2" fill="#B37BBF" opacity="0.07"/><circle cx="796" cy="328" r="2" fill="#B37BBF" opacity="0.07"/><circle cx="796" cy="380" r="2" fill="#B37BBF" opacity="0.07"/><circle cx="796" cy="432" r="2" fill="#B37BBF" opacity="0.07"/><circle cx="796" cy="484" r="2" fill="#B37BBF" opacity="0.07"/><circle cx="796" cy="536" r="2" fill="#B37BBF" opacity="0.07"/><circle cx="796" cy="588" r="2" fill="#B37BBF" opacity="0.07"/><circle cx="796" cy="640" r="2" fill="#B37BBF" opacity="0.07"/><circle cx="796" cy="692" r="2" fill="#B37BBF" opacity="0.07"/><circle cx="848" cy="120" r="2" fill="#B37BBF" opacity="0.07"/><circle cx="848" cy="172" r="2" fill="#B37BBF" opacity="0.07"/><circle cx="848" cy="224" r="2" fill="#B37BBF" opacity="0.07"/><circle cx="848" cy="276" r="2" fill="#B37BBF" opacity="0.07"/><circle cx="848" cy="328" r="2" fill="#B37BBF" opacity="0.07"/><circle cx="848" cy="380" r="2" fill="#B37BBF" opacity="0.07"/><circle cx="848" cy="432" r="2" fill="#B37BBF" opacity="0.07"/><circle cx="848" cy="484" r="2" fill="#B37BBF" opacity="0.07"/><circle cx="848" cy="536" r="2" fill="#B37BBF" opacity="0.07"/><circle cx="848" cy="588" r="2" fill="#B37BBF" opacity="0.07"/><circle cx="848" cy="640" r="2" fill="#B37BBF" opacity="0.07"/><circle cx="848" cy="692" r="2" fill="#B37BBF" opacity="0.07"/><circle cx="900" cy="120" r="2" fill="#B37BBF" opacity="0.07"/><circle cx="900" cy="172" r="2" fill="#B37BBF" opacity="0.07"/><circle cx="900" cy="224" r="2" fill="#B37BBF" opacity="0.07"/><circle cx="900" cy="276" r="2" fill="#B37BBF" opacity="0.07"/><circle cx="900" cy="328" r="2" fill="#B37BBF" opacity="0.07"/><circle cx="900" cy="380" r="2" fill="#B37BBF" opacity="0.07"/><circle cx="900" cy="432" r="2" fill="#B37BBF" opacity="0.07"/><circle cx="900" cy="484" r="2" fill="#B37BBF" opacity="0.07"/><circle cx="900" cy="536" r="2" fill="#B37BBF" opacity="0.07"/><circle cx="900" cy="588" r="2" fill="#B37BBF" opacity="0.07"/><circle cx="900" cy="640" r="2" fill="#B37BBF" opacity="0.07"/><circle cx="900" cy="692" r="2" fill="#B37BBF" opacity="0.07"/><circle cx="952" cy="120" r="2" fill="#B37BBF" opacity="0.07"/><circle cx="952" cy="172" r="2" fill="#B37BBF" opacity="0.07"/><circle cx="952" cy="224" r="2" fill="#B37BBF" opacity="0.07"/><circle cx="952" cy="276" r="2" fill="#B37BBF" opacity="0.07"/><circle cx="952" cy="328" r="2" fill="#B37BBF" opacity="0.07"/><circle cx="952" cy="380" r="2" fill="#B37BBF" opacity="0.07"/><circle cx="952" cy="432" r="2" fill="#B37BBF" opacity="0.07"/><circle cx="952" cy="484" r="2" fill="#B37BBF" opacity="0.07"/><circle cx="952" cy="536" r="2" fill="#B37BBF" opacity="0.07"/><circle cx="952" cy="588" r="2" fill="#B37BBF" opacity="0.07"/><circle cx="952" cy="640" r="2" fill="#B37BBF" opacity="0.07"/><circle cx="952" cy="692" r="2" fill="#B37BBF" opacity="0.07"/><circle cx="1004" cy="120" r="2" fill="#B37BBF" opacity="0.07"/><circle cx="1004" cy="172" r="2" fill="#B37BBF" opacity="0.07"/><circle cx="1004" cy="224" r="2" fill="#B37BBF" opacity="0.07"/><circle cx="1004" cy="276" r="2" fill="#B37BBF" opacity="0.07"/><circle cx="1004" cy="328" r="2" fill="#B37BBF" opacity="0.07"/><circle cx="1004" cy="380" r="2" fill="#B37BBF" opacity="0.07"/><circle cx="1004" cy="432" r="2" fill="#B37BBF" opacity="0.07"/><circle cx="1004" cy="484" r="2" fill="#B37BBF" opacity="0.07"/><circle cx="1004" cy="536" r="2" fill="#B37BBF" opacity="0.07"/><circle cx="1004" cy="588" r="2" fill="#B37BBF" opacity="0.07"/><circle cx="1004" cy="640" r="2" fill="#B37BBF" opacity="0.07"/><circle cx="1004" cy="692" r="2" fill="#B37BBF" opacity="0.07"/>
  <line x1="320" y1="250" x2="820" y2="338" stroke="url(#brand)" stroke-width="1.5" opacity=".45"/>
  <line x1="320" y1="338" x2="820" y2="338" stroke="url(#brand)" stroke-width="1.5" opacity=".45"/>
  <line x1="320" y1="426" x2="820" y2="338" stroke="url(#brand)" stroke-width="1.5" opacity=".45"/>
  <line x1="820" y1="338" x2="1010" y2="210" stroke="#B37BBF" stroke-width="1.5" opacity=".35"/>
  <line x1="820" y1="338" x2="1060" y2="360" stroke="#B37BBF" stroke-width="1.5" opacity=".35"/>
  <line x1="820" y1="338" x2="980" y2="500" stroke="#B37BBF" stroke-width="1.5" opacity=".35"/>
  <line x1="820" y1="338" x2="640" y2="200" stroke="#B37BBF" stroke-width="1.5" opacity=".35"/>
  <line x1="820" y1="338" x2="660" y2="470" stroke="#B37BBF" stroke-width="1.5" opacity=".35"/>
  <line x1="820" y1="338" x2="1080" y2="250" stroke="#B37BBF" stroke-width="1.5" opacity=".35"/>
  <rect x="250" y="224" width="74" height="52" rx="10" fill="#152636" stroke="url(#brand)" stroke-width="1.5"/>
  <line x1="264" y1="242" x2="310" y2="242" stroke="#B37BBF" stroke-width="3" opacity=".5"/>
  <line x1="264" y1="256" x2="296" y2="256" stroke="#B37BBF" stroke-width="3" opacity=".3"/>
  <rect x="250" y="312" width="74" height="52" rx="10" fill="#152636" stroke="url(#brand)" stroke-width="1.5"/>
  <line x1="264" y1="330" x2="310" y2="330" stroke="#B37BBF" stroke-width="3" opacity=".5"/>
  <line x1="264" y1="344" x2="296" y2="344" stroke="#B37BBF" stroke-width="3" opacity=".3"/>
  <rect x="250" y="400" width="74" height="52" rx="10" fill="#152636" stroke="url(#brand)" stroke-width="1.5"/>
  <line x1="264" y1="418" x2="310" y2="418" stroke="#B37BBF" stroke-width="3" opacity=".5"/>
  <line x1="264" y1="432" x2="296" y2="432" stroke="#B37BBF" stroke-width="3" opacity=".3"/>
  <circle cx="1010" cy="210" r="12" fill="#0D0D14" stroke="url(#brand)" stroke-width="2"/>
  <circle cx="1060" cy="360" r="12" fill="#0D0D14" stroke="url(#brand)" stroke-width="2"/>
  <circle cx="980" cy="500" r="12" fill="#0D0D14" stroke="url(#brand)" stroke-width="2"/>
  <circle cx="640" cy="200" r="12" fill="#0D0D14" stroke="url(#brand)" stroke-width="2"/>
  <circle cx="660" cy="470" r="12" fill="#0D0D14" stroke="url(#brand)" stroke-width="2"/>
  <circle cx="1080" cy="250" r="12" fill="#0D0D14" stroke="url(#brand)" stroke-width="2"/>
  <circle cx="820" cy="338" r="58" fill="url(#brand)" opacity=".18"/>
  <circle cx="820" cy="338" r="34" fill="url(#brand)"/>
  <circle cx="820" cy="338" r="34" fill="none" stroke="#26E0C0" stroke-width="2" opacity=".7"/>
</svg>
