<svg viewBox="0 0 1200 675" xmlns="http://www.w3.org/2000/svg" role="img" aria-label="RAG sobre los documentos internos de la empresa" preserveAspectRatio="xMidYMid slice">
  <defs>
    <linearGradient id="bg" x1="0" y1="0" x2="1" y2="1">
      <stop offset="0" stop-color="#0D0D14"/><stop offset=".5" stop-color="#161A2E"/><stop offset="1" stop-color="#0B0B12"/>
    </linearGradient>
    <linearGradient id="brand" x1="0" y1="0" x2="1" y2="1">
      <stop offset="0" stop-color="#D4A5E0"/><stop offset=".5" stop-color="#B37BBF"/><stop offset="1" stop-color="#9B61A4"/>
    </linearGradient>
    <linearGradient id="green" x1="0" y1="0" x2="1" y2="1">
      <stop offset="0" stop-color="#26E0C0"/><stop offset="1" stop-color="#04C7AA"/>
    </linearGradient>
    <radialGradient id="glow" cx=".72" cy=".22" r=".75">
      <stop offset="0" stop-color="#9B61A4" stop-opacity=".40"/><stop offset="1" stop-color="#9B61A4" stop-opacity="0"/>
    </radialGradient>
    <radialGradient id="glow2" cx=".2" cy=".85" r=".6">
      <stop offset="0" stop-color="#04C7AA" stop-opacity=".18"/><stop offset="1" stop-color="#04C7AA" stop-opacity="0"/>
    </radialGradient>
  </defs>
  <rect width="1200" height="675" fill="url(#bg)"/>
  <rect width="1200" height="675" fill="url(#glow)"/>
  <rect width="1200" height="675" fill="url(#glow2)"/>
  <circle cx="120" cy="130" r="2" fill="#B37BBF" opacity="0.07"/><circle cx="120" cy="182" r="2" fill="#B37BBF" opacity="0.07"/><circle cx="120" cy="234" r="2" fill="#B37BBF" opacity="0.07"/><circle cx="120" cy="286" r="2" fill="#B37BBF" opacity="0.07"/><circle cx="120" cy="338" r="2" fill="#B37BBF" opacity="0.07"/><circle cx="120" cy="390" r="2" fill="#B37BBF" opacity="0.07"/><circle cx="120" cy="442" r="2" fill="#B37BBF" opacity="0.07"/><circle cx="120" cy="494" r="2" fill="#B37BBF" opacity="0.07"/><circle cx="172" cy="130" r="2" fill="#B37BBF" opacity="0.07"/><circle cx="172" cy="182" r="2" fill="#B37BBF" opacity="0.07"/><circle cx="172" cy="234" r="2" fill="#B37BBF" opacity="0.07"/><circle cx="172" cy="286" r="2" fill="#B37BBF" opacity="0.07"/><circle cx="172" cy="338" r="2" fill="#B37BBF" opacity="0.07"/><circle cx="172" cy="390" r="2" fill="#B37BBF" opacity="0.07"/><circle cx="172" cy="442" r="2" fill="#B37BBF" opacity="0.07"/><circle cx="172" cy="494" r="2" fill="#B37BBF" opacity="0.07"/><circle cx="224" cy="130" r="2" fill="#B37BBF" opacity="0.07"/><circle cx="224" cy="182" r="2" fill="#B37BBF" opacity="0.07"/><circle cx="224" cy="234" r="2" fill="#B37BBF" opacity="0.07"/><circle cx="224" cy="286" r="2" fill="#B37BBF" opacity="0.07"/><circle cx="224" cy="338" r="2" fill="#B37BBF" opacity="0.07"/><circle cx="224" cy="390" r="2" fill="#B37BBF" opacity="0.07"/><circle cx="224" cy="442" r="2" fill="#B37BBF" opacity="0.07"/><circle cx="224" cy="494" r="2" fill="#B37BBF" opacity="0.07"/><circle cx="276" cy="130" r="2" fill="#B37BBF" opacity="0.07"/><circle cx="276" cy="182" r="2" fill="#B37BBF" opacity="0.07"/><circle cx="276" cy="234" r="2" fill="#B37BBF" opacity="0.07"/><circle cx="276" cy="286" r="2" fill="#B37BBF" opacity="0.07"/><circle cx="276" cy="338" r="2" fill="#B37BBF" opacity="0.07"/><circle cx="276" cy="390" r="2" fill="#B37BBF" opacity="0.07"/><circle cx="276" cy="442" r="2" fill="#B37BBF" opacity="0.07"/><circle cx="276" cy="494" r="2" fill="#B37BBF" opacity="0.07"/><circle cx="328" cy="130" r="2" fill="#B37BBF" opacity="0.07"/><circle cx="328" cy="182" r="2" fill="#B37BBF" opacity="0.07"/><circle cx="328" cy="234" r="2" fill="#B37BBF" opacity="0.07"/><circle cx="328" cy="286" r="2" fill="#B37BBF" opacity="0.07"/><circle cx="328" cy="338" r="2" fill="#B37BBF" opacity="0.07"/><circle cx="328" cy="390" r="2" fill="#B37BBF" opacity="0.07"/><circle cx="328" cy="442" r="2" fill="#B37BBF" opacity="0.07"/><circle cx="328" cy="494" r="2" fill="#B37BBF" opacity="0.07"/><circle cx="380" cy="130" r="2" fill="#B37BBF" opacity="0.07"/><circle cx="380" cy="182" r="2" fill="#B37BBF" opacity="0.07"/><circle cx="380" cy="234" r="2" fill="#B37BBF" opacity="0.07"/><circle cx="380" cy="286" r="2" fill="#B37BBF" opacity="0.07"/><circle cx="380" cy="338" r="2" fill="#B37BBF" opacity="0.07"/><circle cx="380" cy="390" r="2" fill="#B37BBF" opacity="0.07"/><circle cx="380" cy="442" r="2" fill="#B37BBF" opacity="0.07"/><circle cx="380" cy="494" r="2" fill="#B37BBF" opacity="0.07"/><circle cx="432" cy="130" r="2" fill="#B37BBF" opacity="0.07"/><circle cx="432" cy="182" r="2" fill="#B37BBF" opacity="0.07"/><circle cx="432" cy="234" r="2" fill="#B37BBF" opacity="0.07"/><circle cx="432" cy="286" r="2" fill="#B37BBF" opacity="0.07"/><circle cx="432" cy="338" r="2" fill="#B37BBF" opacity="0.07"/><circle cx="432" cy="390" r="2" fill="#B37BBF" opacity="0.07"/><circle cx="432" cy="442" r="2" fill="#B37BBF" opacity="0.07"/><circle cx="432" cy="494" r="2" fill="#B37BBF" opacity="0.07"/><circle cx="484" cy="130" r="2" fill="#B37BBF" opacity="0.07"/><circle cx="484" cy="182" r="2" fill="#B37BBF" opacity="0.07"/><circle cx="484" cy="234" r="2" fill="#B37BBF" opacity="0.07"/><circle cx="484" cy="286" r="2" fill="#B37BBF" opacity="0.07"/><circle cx="484" cy="338" r="2" fill="#B37BBF" opacity="0.07"/><circle cx="484" cy="390" r="2" fill="#B37BBF" opacity="0.07"/><circle cx="484" cy="442" r="2" fill="#B37BBF" opacity="0.07"/><circle cx="484" cy="494" r="2" fill="#B37BBF" opacity="0.07"/><circle cx="536" cy="130" r="2" fill="#B37BBF" opacity="0.07"/><circle cx="536" cy="182" r="2" fill="#B37BBF" opacity="0.07"/><circle cx="536" cy="234" r="2" fill="#B37BBF" opacity="0.07"/><circle cx="536" cy="286" r="2" fill="#B37BBF" opacity="0.07"/><circle cx="536" cy="338" r="2" fill="#B37BBF" opacity="0.07"/><circle cx="536" cy="390" r="2" fill="#B37BBF" opacity="0.07"/><circle cx="536" cy="442" r="2" fill="#B37BBF" opacity="0.07"/><circle cx="536" cy="494" r="2" fill="#B37BBF" opacity="0.07"/><circle cx="588" cy="130" r="2" fill="#B37BBF" opacity="0.07"/><circle cx="588" cy="182" r="2" fill="#B37BBF" opacity="0.07"/><circle cx="588" cy="234" r="2" fill="#B37BBF" opacity="0.07"/><circle cx="588" cy="286" r="2" fill="#B37BBF" opacity="0.07"/><circle cx="588" cy="338" r="2" fill="#B37BBF" opacity="0.07"/><circle cx="588" cy="390" r="2" fill="#B37BBF" opacity="0.07"/><circle cx="588" cy="442" r="2" fill="#B37BBF" opacity="0.07"/><circle cx="588" cy="494" r="2" fill="#B37BBF" opacity="0.07"/><circle cx="640" cy="130" r="2" fill="#B37BBF" opacity="0.07"/><circle cx="640" cy="182" r="2" fill="#B37BBF" opacity="0.07"/><circle cx="640" cy="234" r="2" fill="#B37BBF" opacity="0.07"/><circle cx="640" cy="286" r="2" fill="#B37BBF" opacity="0.07"/><circle cx="640" cy="338" r="2" fill="#B37BBF" opacity="0.07"/><circle cx="640" cy="390" r="2" fill="#B37BBF" opacity="0.07"/><circle cx="640" cy="442" r="2" fill="#B37BBF" opacity="0.07"/><circle cx="640" cy="494" r="2" fill="#B37BBF" opacity="0.07"/><circle cx="692" cy="130" r="2" fill="#B37BBF" opacity="0.07"/><circle cx="692" cy="182" r="2" fill="#B37BBF" opacity="0.07"/><circle cx="692" cy="234" r="2" fill="#B37BBF" opacity="0.07"/><circle cx="692" cy="286" r="2" fill="#B37BBF" opacity="0.07"/><circle cx="692" cy="338" r="2" fill="#B37BBF" opacity="0.07"/><circle cx="692" cy="390" r="2" fill="#B37BBF" opacity="0.07"/><circle cx="692" cy="442" r="2" fill="#B37BBF" opacity="0.07"/><circle cx="692" cy="494" r="2" fill="#B37BBF" opacity="0.07"/><circle cx="744" cy="130" r="2" fill="#B37BBF" opacity="0.07"/><circle cx="744" cy="182" r="2" fill="#B37BBF" opacity="0.07"/><circle cx="744" cy="234" r="2" fill="#B37BBF" opacity="0.07"/><circle cx="744" cy="286" r="2" fill="#B37BBF" opacity="0.07"/><circle cx="744" cy="338" r="2" fill="#B37BBF" opacity="0.07"/><circle cx="744" cy="390" r="2" fill="#B37BBF" opacity="0.07"/><circle cx="744" cy="442" r="2" fill="#B37BBF" opacity="0.07"/><circle cx="744" cy="494" r="2" fill="#B37BBF" opacity="0.07"/><circle cx="796" cy="130" r="2" fill="#B37BBF" opacity="0.07"/><circle cx="796" cy="182" r="2" fill="#B37BBF" opacity="0.07"/><circle cx="796" cy="234" r="2" fill="#B37BBF" opacity="0.07"/><circle cx="796" cy="286" r="2" fill="#B37BBF" opacity="0.07"/><circle cx="796" cy="338" r="2" fill="#B37BBF" opacity="0.07"/><circle cx="796" cy="390" r="2" fill="#B37BBF" opacity="0.07"/><circle cx="796" cy="442" r="2" fill="#B37BBF" opacity="0.07"/><circle cx="796" cy="494" r="2" fill="#B37BBF" opacity="0.07"/>
  <g transform="rotate(-5 340 325)">
  <rect x="250" y="215" width="180" height="230" rx="12" fill="#152636" stroke="url(#brand)" stroke-width="1.5"/>
  <line x1="272" y1="257" x2="362" y2="257" stroke="#B37BBF" stroke-width="3.5" opacity=".4"/>
  <line x1="272" y1="291" x2="402" y2="291" stroke="#B37BBF" stroke-width="3.5" opacity=".4"/>
  <line x1="272" y1="325" x2="362" y2="325" stroke="#B37BBF" stroke-width="3.5" opacity=".4"/>
  <line x1="272" y1="359" x2="402" y2="359" stroke="#B37BBF" stroke-width="3.5" opacity=".4"/>
  <line x1="272" y1="393" x2="362" y2="393" stroke="#B37BBF" stroke-width="3.5" opacity=".4"/>
  </g>
  <g transform="rotate(2 390 350)">
  <rect x="300" y="240" width="180" height="230" rx="12" fill="#152636" stroke="url(#brand)" stroke-width="1.5"/>
  <line x1="322" y1="282" x2="412" y2="282" stroke="#B37BBF" stroke-width="3.5" opacity=".4"/>
  <line x1="322" y1="316" x2="452" y2="316" stroke="#B37BBF" stroke-width="3.5" opacity=".4"/>
  <line x1="322" y1="350" x2="412" y2="350" stroke="#B37BBF" stroke-width="3.5" opacity=".4"/>
  <line x1="322" y1="384" x2="452" y2="384" stroke="#B37BBF" stroke-width="3.5" opacity=".4"/>
  <line x1="322" y1="418" x2="412" y2="418" stroke="#B37BBF" stroke-width="3.5" opacity=".4"/>
  </g>
  <g transform="rotate(8 440 375)">
  <rect x="350" y="265" width="180" height="230" rx="12" fill="#152636" stroke="url(#brand)" stroke-width="1.5"/>
  <line x1="372" y1="307" x2="462" y2="307" stroke="#B37BBF" stroke-width="3.5" opacity=".4"/>
  <line x1="372" y1="341" x2="502" y2="341" stroke="#B37BBF" stroke-width="3.5" opacity=".4"/>
  <line x1="372" y1="375" x2="462" y2="375" stroke="#B37BBF" stroke-width="3.5" opacity=".4"/>
  <line x1="372" y1="409" x2="502" y2="409" stroke="#B37BBF" stroke-width="3.5" opacity=".4"/>
  <line x1="372" y1="443" x2="462" y2="443" stroke="#B37BBF" stroke-width="3.5" opacity=".4"/>
  </g>
  <line x1="600" y1="345" x2="832" y2="340" stroke="url(#brand)" stroke-width="2" opacity=".5"/>
  <circle cx="890" cy="340" r="52" fill="url(#brand)" opacity=".18"/>
  <circle cx="890" cy="340" r="30" fill="url(#brand)"/>
  <circle cx="890" cy="340" r="30" fill="none" stroke="#26E0C0" stroke-width="2" opacity=".7"/>
  <circle cx="500" cy="305" r="36" fill="none" stroke="url(#green)" stroke-width="6"/>
  <line x1="525" y1="330" x2="560" y2="365" stroke="url(#green)" stroke-width="8" stroke-linecap="round"/>
</svg>
