<svg viewBox="0 0 1200 675" xmlns="http://www.w3.org/2000/svg" role="img" aria-label="Flujos de extraccion de datos a escala" preserveAspectRatio="xMidYMid slice">
  <defs>
    <linearGradient id="bg" x1="0" y1="0" x2="1" y2="1">
      <stop offset="0" stop-color="#0D0D14"/><stop offset=".5" stop-color="#161A2E"/><stop offset="1" stop-color="#0B0B12"/>
    </linearGradient>
    <linearGradient id="brand" x1="0" y1="0" x2="1" y2="1">
      <stop offset="0" stop-color="#D4A5E0"/><stop offset=".5" stop-color="#B37BBF"/><stop offset="1" stop-color="#9B61A4"/>
    </linearGradient>
    <linearGradient id="green" x1="0" y1="0" x2="1" y2="1">
      <stop offset="0" stop-color="#26E0C0"/><stop offset="1" stop-color="#04C7AA"/>
    </linearGradient>
    <radialGradient id="glow" cx=".72" cy=".22" r=".75">
      <stop offset="0" stop-color="#9B61A4" stop-opacity=".40"/><stop offset="1" stop-color="#9B61A4" stop-opacity="0"/>
    </radialGradient>
    <radialGradient id="glow2" cx=".2" cy=".85" r=".6">
      <stop offset="0" stop-color="#04C7AA" stop-opacity=".18"/><stop offset="1" stop-color="#04C7AA" stop-opacity="0"/>
    </radialGradient>
  </defs>
  <rect width="1200" height="675" fill="url(#bg)"/>
  <rect width="1200" height="675" fill="url(#glow)"/>
  <rect width="1200" height="675" fill="url(#glow2)"/>
  <circle cx="110" cy="120" r="2.4" fill="#B37BBF" opacity="0.12"/><circle cx="110" cy="172" r="2.4" fill="#B37BBF" opacity="0.12"/><circle cx="110" cy="224" r="2.4" fill="#B37BBF" opacity="0.12"/><circle cx="110" cy="276" r="2.4" fill="#B37BBF" opacity="0.12"/><circle cx="110" cy="328" r="2.4" fill="#B37BBF" opacity="0.12"/><circle cx="110" cy="380" r="2.4" fill="#B37BBF" opacity="0.12"/><circle cx="110" cy="432" r="2.4" fill="#B37BBF" opacity="0.12"/><circle cx="110" cy="484" r="2.4" fill="#B37BBF" opacity="0.12"/><circle cx="110" cy="536" r="2.4" fill="#B37BBF" opacity="0.12"/><circle cx="110" cy="588" r="2.4" fill="#B37BBF" opacity="0.12"/><circle cx="110" cy="640" r="2.4" fill="#B37BBF" opacity="0.12"/><circle cx="162" cy="120" r="2.4" fill="#B37BBF" opacity="0.12"/><circle cx="162" cy="172" r="2.4" fill="#B37BBF" opacity="0.12"/><circle cx="162" cy="224" r="2.4" fill="#B37BBF" opacity="0.12"/><circle cx="162" cy="276" r="2.4" fill="#B37BBF" opacity="0.12"/><circle cx="162" cy="328" r="2.4" fill="#B37BBF" opacity="0.12"/><circle cx="162" cy="380" r="2.4" fill="#B37BBF" opacity="0.12"/><circle cx="162" cy="432" r="2.4" fill="#B37BBF" opacity="0.12"/><circle cx="162" cy="484" r="2.4" fill="#B37BBF" opacity="0.12"/><circle cx="162" cy="536" r="2.4" fill="#B37BBF" opacity="0.12"/><circle cx="162" cy="588" r="2.4" fill="#B37BBF" opacity="0.12"/><circle cx="162" cy="640" r="2.4" fill="#B37BBF" opacity="0.12"/><circle cx="214" cy="120" r="2.4" fill="#B37BBF" opacity="0.12"/><circle cx="214" cy="172" r="2.4" fill="#B37BBF" opacity="0.12"/><circle cx="214" cy="224" r="2.4" fill="#B37BBF" opacity="0.12"/><circle cx="214" cy="276" r="2.4" fill="#B37BBF" opacity="0.12"/><circle cx="214" cy="328" r="2.4" fill="#B37BBF" opacity="0.12"/><circle cx="214" cy="380" r="2.4" fill="#B37BBF" opacity="0.12"/><circle cx="214" cy="432" r="2.4" fill="#B37BBF" opacity="0.12"/><circle cx="214" cy="484" r="2.4" fill="#B37BBF" opacity="0.12"/><circle cx="214" cy="536" r="2.4" fill="#B37BBF" opacity="0.12"/><circle cx="214" cy="588" r="2.4" fill="#B37BBF" opacity="0.12"/><circle cx="214" cy="640" r="2.4" fill="#B37BBF" opacity="0.12"/><circle cx="266" cy="120" r="2.4" fill="#B37BBF" opacity="0.12"/><circle cx="266" cy="172" r="2.4" fill="#B37BBF" opacity="0.12"/><circle cx="266" cy="224" r="2.4" fill="#B37BBF" opacity="0.12"/><circle cx="266" cy="276" r="2.4" fill="#B37BBF" opacity="0.12"/><circle cx="266" cy="328" r="2.4" fill="#B37BBF" opacity="0.12"/><circle cx="266" cy="380" r="2.4" fill="#B37BBF" opacity="0.12"/><circle cx="266" cy="432" r="2.4" fill="#B37BBF" opacity="0.12"/><circle cx="266" cy="484" r="2.4" fill="#B37BBF" opacity="0.12"/><circle cx="266" cy="536" r="2.4" fill="#B37BBF" opacity="0.12"/><circle cx="266" cy="588" r="2.4" fill="#B37BBF" opacity="0.12"/><circle cx="266" cy="640" r="2.4" fill="#B37BBF" opacity="0.12"/><circle cx="318" cy="120" r="2.4" fill="#B37BBF" opacity="0.12"/><circle cx="318" cy="172" r="2.4" fill="#B37BBF" opacity="0.12"/><circle cx="318" cy="224" r="2.4" fill="#B37BBF" opacity="0.12"/><circle cx="318" cy="276" r="2.4" fill="#B37BBF" opacity="0.12"/><circle cx="318" cy="328" r="2.4" fill="#B37BBF" opacity="0.12"/><circle cx="318" cy="380" r="2.4" fill="#B37BBF" opacity="0.12"/><circle cx="318" cy="432" r="2.4" fill="#B37BBF" opacity="0.12"/><circle cx="318" cy="484" r="2.4" fill="#B37BBF" opacity="0.12"/><circle cx="318" cy="536" r="2.4" fill="#B37BBF" opacity="0.12"/><circle cx="318" cy="588" r="2.4" fill="#B37BBF" opacity="0.12"/><circle cx="318" cy="640" r="2.4" fill="#B37BBF" opacity="0.12"/><circle cx="370" cy="120" r="2.4" fill="#B37BBF" opacity="0.12"/><circle cx="370" cy="172" r="2.4" fill="#B37BBF" opacity="0.12"/><circle cx="370" cy="224" r="2.4" fill="#B37BBF" opacity="0.12"/><circle cx="370" cy="276" r="2.4" fill="#B37BBF" opacity="0.12"/><circle cx="370" cy="328" r="2.4" fill="#B37BBF" opacity="0.12"/><circle cx="370" cy="380" r="2.4" fill="#B37BBF" opacity="0.12"/><circle cx="370" cy="432" r="2.4" fill="#B37BBF" opacity="0.12"/><circle cx="370" cy="484" r="2.4" fill="#B37BBF" opacity="0.12"/><circle cx="370" cy="536" r="2.4" fill="#B37BBF" opacity="0.12"/><circle cx="370" cy="588" r="2.4" fill="#B37BBF" opacity="0.12"/><circle cx="370" cy="640" r="2.4" fill="#B37BBF" opacity="0.12"/><circle cx="422" cy="120" r="2.4" fill="#B37BBF" opacity="0.12"/><circle cx="422" cy="172" r="2.4" fill="#B37BBF" opacity="0.12"/><circle cx="422" cy="224" r="2.4" fill="#B37BBF" opacity="0.12"/><circle cx="422" cy="276" r="2.4" fill="#B37BBF" opacity="0.12"/><circle cx="422" cy="328" r="2.4" fill="#B37BBF" opacity="0.12"/><circle cx="422" cy="380" r="2.4" fill="#B37BBF" opacity="0.12"/><circle cx="422" cy="432" r="2.4" fill="#B37BBF" opacity="0.12"/><circle cx="422" cy="484" r="2.4" fill="#B37BBF" opacity="0.12"/><circle cx="422" cy="536" r="2.4" fill="#B37BBF" opacity="0.12"/><circle cx="422" cy="588" r="2.4" fill="#B37BBF" opacity="0.12"/><circle cx="422" cy="640" r="2.4" fill="#B37BBF" opacity="0.12"/><circle cx="474" cy="120" r="2.4" fill="#B37BBF" opacity="0.12"/><circle cx="474" cy="172" r="2.4" fill="#B37BBF" opacity="0.12"/><circle cx="474" cy="224" r="2.4" fill="#B37BBF" opacity="0.12"/><circle cx="474" cy="276" r="2.4" fill="#B37BBF" opacity="0.12"/><circle cx="474" cy="328" r="2.4" fill="#B37BBF" opacity="0.12"/><circle cx="474" cy="380" r="2.4" fill="#B37BBF" opacity="0.12"/><circle cx="474" cy="432" r="2.4" fill="#B37BBF" opacity="0.12"/><circle cx="474" cy="484" r="2.4" fill="#B37BBF" opacity="0.12"/><circle cx="474" cy="536" r="2.4" fill="#B37BBF" opacity="0.12"/><circle cx="474" cy="588" r="2.4" fill="#B37BBF" opacity="0.12"/><circle cx="474" cy="640" r="2.4" fill="#B37BBF" opacity="0.12"/><circle cx="526" cy="120" r="2.4" fill="#B37BBF" opacity="0.12"/><circle cx="526" cy="172" r="2.4" fill="#B37BBF" opacity="0.12"/><circle cx="526" cy="224" r="2.4" fill="#B37BBF" opacity="0.12"/><circle cx="526" cy="276" r="2.4" fill="#B37BBF" opacity="0.12"/><circle cx="526" cy="328" r="2.4" fill="#B37BBF" opacity="0.12"/><circle cx="526" cy="380" r="2.4" fill="#B37BBF" opacity="0.12"/><circle cx="526" cy="432" r="2.4" fill="#B37BBF" opacity="0.12"/><circle cx="526" cy="484" r="2.4" fill="#B37BBF" opacity="0.12"/><circle cx="526" cy="536" r="2.4" fill="#B37BBF" opacity="0.12"/><circle cx="526" cy="588" r="2.4" fill="#B37BBF" opacity="0.12"/><circle cx="526" cy="640" r="2.4" fill="#B37BBF" opacity="0.12"/><circle cx="578" cy="120" r="2.4" fill="#B37BBF" opacity="0.12"/><circle cx="578" cy="172" r="2.4" fill="#B37BBF" opacity="0.12"/><circle cx="578" cy="224" r="2.4" fill="#B37BBF" opacity="0.12"/><circle cx="578" cy="276" r="2.4" fill="#B37BBF" opacity="0.12"/><circle cx="578" cy="328" r="2.4" fill="#B37BBF" opacity="0.12"/><circle cx="578" cy="380" r="2.4" fill="#B37BBF" opacity="0.12"/><circle cx="578" cy="432" r="2.4" fill="#B37BBF" opacity="0.12"/><circle cx="578" cy="484" r="2.4" fill="#B37BBF" opacity="0.12"/><circle cx="578" cy="536" r="2.4" fill="#B37BBF" opacity="0.12"/><circle cx="578" cy="588" r="2.4" fill="#B37BBF" opacity="0.12"/><circle cx="578" cy="640" r="2.4" fill="#B37BBF" opacity="0.12"/><circle cx="630" cy="120" r="2.4" fill="#B37BBF" opacity="0.12"/><circle cx="630" cy="172" r="2.4" fill="#B37BBF" opacity="0.12"/><circle cx="630" cy="224" r="2.4" fill="#B37BBF" opacity="0.12"/><circle cx="630" cy="276" r="2.4" fill="#B37BBF" opacity="0.12"/><circle cx="630" cy="328" r="2.4" fill="#B37BBF" opacity="0.12"/><circle cx="630" cy="380" r="2.4" fill="#B37BBF" opacity="0.12"/><circle cx="630" cy="432" r="2.4" fill="#B37BBF" opacity="0.12"/><circle cx="630" cy="484" r="2.4" fill="#B37BBF" opacity="0.12"/><circle cx="630" cy="536" r="2.4" fill="#B37BBF" opacity="0.12"/><circle cx="630" cy="588" r="2.4" fill="#B37BBF" opacity="0.12"/><circle cx="630" cy="640" r="2.4" fill="#B37BBF" opacity="0.12"/><circle cx="682" cy="120" r="2.4" fill="#B37BBF" opacity="0.12"/><circle cx="682" cy="172" r="2.4" fill="#B37BBF" opacity="0.12"/><circle cx="682" cy="224" r="2.4" fill="#B37BBF" opacity="0.12"/><circle cx="682" cy="276" r="2.4" fill="#B37BBF" opacity="0.12"/><circle cx="682" cy="328" r="2.4" fill="#B37BBF" opacity="0.12"/><circle cx="682" cy="380" r="2.4" fill="#B37BBF" opacity="0.12"/><circle cx="682" cy="432" r="2.4" fill="#B37BBF" opacity="0.12"/><circle cx="682" cy="484" r="2.4" fill="#B37BBF" opacity="0.12"/><circle cx="682" cy="536" r="2.4" fill="#B37BBF" opacity="0.12"/><circle cx="682" cy="588" r="2.4" fill="#B37BBF" opacity="0.12"/><circle cx="682" cy="640" r="2.4" fill="#B37BBF" opacity="0.12"/><circle cx="734" cy="120" r="2.4" fill="#B37BBF" opacity="0.12"/><circle cx="734" cy="172" r="2.4" fill="#B37BBF" opacity="0.12"/><circle cx="734" cy="224" r="2.4" fill="#B37BBF" opacity="0.12"/><circle cx="734" cy="276" r="2.4" fill="#B37BBF" opacity="0.12"/><circle cx="734" cy="328" r="2.4" fill="#B37BBF" opacity="0.12"/><circle cx="734" cy="380" r="2.4" fill="#B37BBF" opacity="0.12"/><circle cx="734" cy="432" r="2.4" fill="#B37BBF" opacity="0.12"/><circle cx="734" cy="484" r="2.4" fill="#B37BBF" opacity="0.12"/><circle cx="734" cy="536" r="2.4" fill="#B37BBF" opacity="0.12"/><circle cx="734" cy="588" r="2.4" fill="#B37BBF" opacity="0.12"/><circle cx="734" cy="640" r="2.4" fill="#B37BBF" opacity="0.12"/><circle cx="786" cy="120" r="2.4" fill="#B37BBF" opacity="0.12"/><circle cx="786" cy="172" r="2.4" fill="#B37BBF" opacity="0.12"/><circle cx="786" cy="224" r="2.4" fill="#B37BBF" opacity="0.12"/><circle cx="786" cy="276" r="2.4" fill="#B37BBF" opacity="0.12"/><circle cx="786" cy="328" r="2.4" fill="#B37BBF" opacity="0.12"/><circle cx="786" cy="380" r="2.4" fill="#B37BBF" opacity="0.12"/><circle cx="786" cy="432" r="2.4" fill="#B37BBF" opacity="0.12"/><circle cx="786" cy="484" r="2.4" fill="#B37BBF" opacity="0.12"/><circle cx="786" cy="536" r="2.4" fill="#B37BBF" opacity="0.12"/><circle cx="786" cy="588" r="2.4" fill="#B37BBF" opacity="0.12"/><circle cx="786" cy="640" r="2.4" fill="#B37BBF" opacity="0.12"/><circle cx="838" cy="120" r="2.4" fill="#B37BBF" opacity="0.12"/><circle cx="838" cy="172" r="2.4" fill="#B37BBF" opacity="0.12"/><circle cx="838" cy="224" r="2.4" fill="#B37BBF" opacity="0.12"/><circle cx="838" cy="276" r="2.4" fill="#B37BBF" opacity="0.12"/><circle cx="838" cy="328" r="2.4" fill="#B37BBF" opacity="0.12"/><circle cx="838" cy="380" r="2.4" fill="#B37BBF" opacity="0.12"/><circle cx="838" cy="432" r="2.4" fill="#B37BBF" opacity="0.12"/><circle cx="838" cy="484" r="2.4" fill="#B37BBF" opacity="0.12"/><circle cx="838" cy="536" r="2.4" fill="#B37BBF" opacity="0.12"/><circle cx="838" cy="588" r="2.4" fill="#B37BBF" opacity="0.12"/><circle cx="838" cy="640" r="2.4" fill="#B37BBF" opacity="0.12"/><circle cx="890" cy="120" r="2.4" fill="#B37BBF" opacity="0.12"/><circle cx="890" cy="172" r="2.4" fill="#B37BBF" opacity="0.12"/><circle cx="890" cy="224" r="2.4" fill="#B37BBF" opacity="0.12"/><circle cx="890" cy="276" r="2.4" fill="#B37BBF" opacity="0.12"/><circle cx="890" cy="328" r="2.4" fill="#B37BBF" opacity="0.12"/><circle cx="890" cy="380" r="2.4" fill="#B37BBF" opacity="0.12"/><circle cx="890" cy="432" r="2.4" fill="#B37BBF" opacity="0.12"/><circle cx="890" cy="484" r="2.4" fill="#B37BBF" opacity="0.12"/><circle cx="890" cy="536" r="2.4" fill="#B37BBF" opacity="0.12"/><circle cx="890" cy="588" r="2.4" fill="#B37BBF" opacity="0.12"/><circle cx="890" cy="640" r="2.4" fill="#B37BBF" opacity="0.12"/><circle cx="942" cy="120" r="2.4" fill="#B37BBF" opacity="0.12"/><circle cx="942" cy="172" r="2.4" fill="#B37BBF" opacity="0.12"/><circle cx="942" cy="224" r="2.4" fill="#B37BBF" opacity="0.12"/><circle cx="942" cy="276" r="2.4" fill="#B37BBF" opacity="0.12"/><circle cx="942" cy="328" r="2.4" fill="#B37BBF" opacity="0.12"/><circle cx="942" cy="380" r="2.4" fill="#B37BBF" opacity="0.12"/><circle cx="942" cy="432" r="2.4" fill="#B37BBF" opacity="0.12"/><circle cx="942" cy="484" r="2.4" fill="#B37BBF" opacity="0.12"/><circle cx="942" cy="536" r="2.4" fill="#B37BBF" opacity="0.12"/><circle cx="942" cy="588" r="2.4" fill="#B37BBF" opacity="0.12"/><circle cx="942" cy="640" r="2.4" fill="#B37BBF" opacity="0.12"/><circle cx="994" cy="120" r="2.4" fill="#B37BBF" opacity="0.12"/><circle cx="994" cy="172" r="2.4" fill="#B37BBF" opacity="0.12"/><circle cx="994" cy="224" r="2.4" fill="#B37BBF" opacity="0.12"/><circle cx="994" cy="276" r="2.4" fill="#B37BBF" opacity="0.12"/><circle cx="994" cy="328" r="2.4" fill="#B37BBF" opacity="0.12"/><circle cx="994" cy="380" r="2.4" fill="#B37BBF" opacity="0.12"/><circle cx="994" cy="432" r="2.4" fill="#B37BBF" opacity="0.12"/><circle cx="994" cy="484" r="2.4" fill="#B37BBF" opacity="0.12"/><circle cx="994" cy="536" r="2.4" fill="#B37BBF" opacity="0.12"/><circle cx="994" cy="588" r="2.4" fill="#B37BBF" opacity="0.12"/><circle cx="994" cy="640" r="2.4" fill="#B37BBF" opacity="0.12"/><circle cx="1046" cy="120" r="2.4" fill="#B37BBF" opacity="0.12"/><circle cx="1046" cy="172" r="2.4" fill="#B37BBF" opacity="0.12"/><circle cx="1046" cy="224" r="2.4" fill="#B37BBF" opacity="0.12"/><circle cx="1046" cy="276" r="2.4" fill="#B37BBF" opacity="0.12"/><circle cx="1046" cy="328" r="2.4" fill="#B37BBF" opacity="0.12"/><circle cx="1046" cy="380" r="2.4" fill="#B37BBF" opacity="0.12"/><circle cx="1046" cy="432" r="2.4" fill="#B37BBF" opacity="0.12"/><circle cx="1046" cy="484" r="2.4" fill="#B37BBF" opacity="0.12"/><circle cx="1046" cy="536" r="2.4" fill="#B37BBF" opacity="0.12"/><circle cx="1046" cy="588" r="2.4" fill="#B37BBF" opacity="0.12"/><circle cx="1046" cy="640" r="2.4" fill="#B37BBF" opacity="0.12"/><circle cx="1098" cy="120" r="2.4" fill="#B37BBF" opacity="0.12"/><circle cx="1098" cy="172" r="2.4" fill="#B37BBF" opacity="0.12"/><circle cx="1098" cy="224" r="2.4" fill="#B37BBF" opacity="0.12"/><circle cx="1098" cy="276" r="2.4" fill="#B37BBF" opacity="0.12"/><circle cx="1098" cy="328" r="2.4" fill="#B37BBF" opacity="0.12"/><circle cx="1098" cy="380" r="2.4" fill="#B37BBF" opacity="0.12"/><circle cx="1098" cy="432" r="2.4" fill="#B37BBF" opacity="0.12"/><circle cx="1098" cy="484" r="2.4" fill="#B37BBF" opacity="0.12"/><circle cx="1098" cy="536" r="2.4" fill="#B37BBF" opacity="0.12"/><circle cx="1098" cy="588" r="2.4" fill="#B37BBF" opacity="0.12"/><circle cx="1098" cy="640" r="2.4" fill="#B37BBF" opacity="0.12"/>
  <line x1="360" y1="110" x2="360" y2="560" stroke="url(#brand)" stroke-width="2.5" opacity="0.60"/>
  <circle cx="360" cy="150" r="5" fill="#B37BBF" opacity="1.00"/>
  <circle cx="360" cy="210" r="3" fill="#B37BBF" opacity="1.00"/>
  <circle cx="360" cy="270" r="5" fill="#B37BBF" opacity="1.00"/>
  <circle cx="360" cy="330" r="3" fill="#B37BBF" opacity="1.00"/>
  <circle cx="360" cy="390" r="5" fill="#B37BBF" opacity="1.00"/>
  <circle cx="360" cy="450" r="3" fill="#B37BBF" opacity="1.00"/>
  <circle cx="360" cy="510" r="5" fill="#B37BBF" opacity="1.00"/>
  <circle cx="360" cy="565" r="9" fill="#0D0D14" stroke="url(#green)" stroke-width="2.5"/>
  <line x1="520" y1="110" x2="520" y2="560" stroke="url(#brand)" stroke-width="2.5" opacity="0.42"/>
  <circle cx="520" cy="150" r="5" fill="#B37BBF" opacity="0.70"/>
  <circle cx="520" cy="210" r="3" fill="#B37BBF" opacity="0.70"/>
  <circle cx="520" cy="270" r="5" fill="#B37BBF" opacity="0.70"/>
  <circle cx="520" cy="330" r="3" fill="#B37BBF" opacity="0.70"/>
  <circle cx="520" cy="390" r="5" fill="#B37BBF" opacity="0.70"/>
  <circle cx="520" cy="450" r="3" fill="#B37BBF" opacity="0.70"/>
  <circle cx="520" cy="510" r="5" fill="#B37BBF" opacity="0.70"/>
  <circle cx="520" cy="565" r="9" fill="#0D0D14" stroke="url(#green)" stroke-width="2.5"/>
  <line x1="680" y1="110" x2="680" y2="560" stroke="url(#brand)" stroke-width="2.5" opacity="0.60"/>
  <circle cx="680" cy="150" r="5" fill="#B37BBF" opacity="1.00"/>
  <circle cx="680" cy="210" r="3" fill="#B37BBF" opacity="1.00"/>
  <circle cx="680" cy="270" r="5" fill="#B37BBF" opacity="1.00"/>
  <circle cx="680" cy="330" r="3" fill="#B37BBF" opacity="1.00"/>
  <circle cx="680" cy="390" r="5" fill="#B37BBF" opacity="1.00"/>
  <circle cx="680" cy="450" r="3" fill="#B37BBF" opacity="1.00"/>
  <circle cx="680" cy="510" r="5" fill="#B37BBF" opacity="1.00"/>
  <circle cx="680" cy="565" r="9" fill="#0D0D14" stroke="url(#green)" stroke-width="2.5"/>
  <line x1="840" y1="110" x2="840" y2="560" stroke="url(#brand)" stroke-width="2.5" opacity="0.33"/>
  <circle cx="840" cy="150" r="5" fill="#B37BBF" opacity="0.55"/>
  <circle cx="840" cy="210" r="3" fill="#B37BBF" opacity="0.55"/>
  <circle cx="840" cy="270" r="5" fill="#B37BBF" opacity="0.55"/>
  <circle cx="840" cy="330" r="3" fill="#B37BBF" opacity="0.55"/>
  <circle cx="840" cy="390" r="5" fill="#B37BBF" opacity="0.55"/>
  <circle cx="840" cy="450" r="3" fill="#B37BBF" opacity="0.55"/>
  <circle cx="840" cy="510" r="5" fill="#B37BBF" opacity="0.55"/>
  <circle cx="840" cy="565" r="9" fill="#0D0D14" stroke="url(#green)" stroke-width="2.5"/>
  <line x1="980" y1="110" x2="980" y2="560" stroke="url(#brand)" stroke-width="2.5" opacity="0.51"/>
  <circle cx="980" cy="150" r="5" fill="#B37BBF" opacity="0.85"/>
  <circle cx="980" cy="210" r="3" fill="#B37BBF" opacity="0.85"/>
  <circle cx="980" cy="270" r="5" fill="#B37BBF" opacity="0.85"/>
  <circle cx="980" cy="330" r="3" fill="#B37BBF" opacity="0.85"/>
  <circle cx="980" cy="390" r="5" fill="#B37BBF" opacity="0.85"/>
  <circle cx="980" cy="450" r="3" fill="#B37BBF" opacity="0.85"/>
  <circle cx="980" cy="510" r="5" fill="#B37BBF" opacity="0.85"/>
  <circle cx="980" cy="565" r="9" fill="#0D0D14" stroke="url(#green)" stroke-width="2.5"/>
  <rect x="300" y="600" width="700" height="10" rx="5" fill="url(#brand)" opacity=".5"/>
</svg>
