<?xml version="1.0" encoding="UTF-8"?>
<svg id="Capa_2" data-name="Capa 2" xmlns="http://www.w3.org/2000/svg" viewBox="0 0 3510.59 488.19">
  <defs>
    <style>
      .cls-1 {
        fill: #a45ea2;
      }

      .cls-1, .cls-2 {
        stroke-width: 0px;
      }

      .cls-2 {
        fill: #010101;
      }
    </style>
  </defs>
  <g id="Capa_1-2" data-name="Capa 1">
    <g>
      <g>
        <path class="cls-2" d="M1895.62,31.72c36.92,19.59,65.5,47.04,85.8,82.41,20.18,35.37,30.37,76.21,30.37,122.48s-10.18,86.57-30.37,122.18c-20.3,35.61-49,63.17-86.16,82.76-37.15,19.59-80.2,29.35-129.15,29.35h-175.53V2.36h175.53c49.42,0,92.59,9.76,129.5,29.35ZM1859.6,336.75c24-23.58,36.02-56.98,36.02-100.15s-12.03-76.75-36.02-100.74c-24.05-24.05-57.64-36.08-100.8-36.08h-54.06v272.34h54.06c43.17,0,76.75-11.79,100.8-35.37Z"/>
        <path class="cls-2" d="M2391.54,312.04h-258.29c1.73,23.16,9.23,40.85,22.33,53.05,13.1,12.27,29.23,18.34,48.41,18.34,28.46,0,48.29-11.97,59.42-36.02h121.46c-6.25,24.47-17.51,46.5-33.7,66.09-16.25,19.59-36.62,34.95-61.09,46.03-24.47,11.13-51.86,16.73-82.11,16.73-36.5,0-68.95-7.8-97.47-23.4-28.46-15.54-50.73-37.81-66.75-66.75-16.02-28.88-24-62.7-24-101.46s7.86-72.52,23.7-101.46c15.78-28.88,37.93-51.15,66.39-66.75,28.46-15.54,61.21-23.34,98.12-23.34s68.12,7.56,96.1,22.69c28.04,15.12,49.96,36.74,65.79,64.78,15.78,27.98,23.7,60.73,23.7,98.12,0,10.66-.71,21.79-2.02,33.34ZM2276.74,248.63c0-19.59-6.67-35.13-20.07-46.74-13.34-11.55-30.01-17.33-50.01-17.33s-35.31,5.54-48.41,16.67c-13.16,11.13-21.26,26.91-24.35,47.39h142.84Z"/>
        <path class="cls-2" d="M2587.79,364.08l80.74-265.61h121.46l-132.12,372.43h-140.87l-132.12-372.43h122.12l80.8,265.61Z"/>
        <path class="cls-2" d="M3253.67,2.36v468.53h-114.14V2.36h114.14Z"/>
        <path class="cls-2" d="M3510.59,374.14v96.75h-58.05c-41.38,0-73.65-10.12-96.75-30.37-23.16-20.24-34.71-53.29-34.71-99.14v-148.14h-45.43v-94.79h45.43V7.66h114.14v90.8h74.72v94.79h-74.72v149.51c0,11.13,2.62,19.11,7.98,24,5.36,4.94,14.23,7.38,26.73,7.38h40.67Z"/>
        <path class="cls-2" d="M858.78,98.6v371.38h-113.82v-50.59c-11.58,16.45-27.19,29.63-46.9,39.6-19.77,9.97-41.62,14.96-65.61,14.96-28.38,0-53.44-6.29-75.17-18.94-21.79-12.65-38.65-30.93-50.59-54.92-11.99-23.99-17.99-52.13-17.99-84.55V98.6h113.17v201.63c0,24.88,6.41,44.17,19.3,57.95,12.82,13.72,30.16,20.6,51.89,20.6s39.72-6.89,52.6-20.6c12.82-13.77,19.3-33.07,19.3-57.95V98.6h113.82Z"/>
        <path class="cls-2" d="M971.89,458.64c-25.29-11.04-45.24-26.24-59.91-45.54-14.61-19.36-22.86-40.97-24.58-64.9h112.45c1.37,12.82,7.36,23.27,17.99,31.23,10.63,8.02,23.75,11.99,39.25,11.99,14.19,0,25.17-2.73,32.95-8.31,7.78-5.52,11.64-12.77,11.64-21.61,0-10.69-5.52-18.52-16.62-23.63-11.1-5.11-29.03-10.75-53.91-16.98-26.6-6.23-48.8-12.77-66.56-19.65-17.75-6.89-33.07-17.75-45.9-32.6-12.88-14.84-19.3-34.97-19.3-60.26,0-21.26,5.82-40.67,17.63-58.19,11.7-17.57,29.03-31.41,51.89-41.62,22.86-10.21,49.99-15.32,81.52-15.32,46.61,0,83.3,11.58,110.14,34.61,26.9,23.1,42.27,53.67,46.31,91.85h-105.21c-1.78-12.88-7.42-23.04-16.98-30.64-9.5-7.54-22.03-11.28-37.58-11.28-13.3,0-23.51,2.55-30.64,7.66-7.07,5.11-10.63,12.05-10.63,20.96,0,10.63,5.64,18.64,16.98,23.93,11.34,5.34,28.97,10.69,52.9,15.97,27.49,7.12,49.93,14.13,67.21,21.02,17.34,6.83,32.54,17.93,45.6,33.25,13.12,15.32,19.89,35.86,20.31,61.57,0,21.73-6.12,41.15-18.29,58.25-12.23,17.1-29.75,30.52-52.6,40.26-22.86,9.74-49.34,14.67-79.5,14.67-32.42,0-61.27-5.58-86.57-16.68Z"/>
        <path class="cls-2" d="M1452.39,373.5v96.48h-57.89c-41.26,0-73.44-10.09-96.48-30.28-23.1-20.19-34.61-53.14-34.61-98.86v-147.72h-45.3v-94.52h45.3V8.05h113.82v90.54h74.51v94.52h-74.51v149.09c0,11.1,2.61,19.06,7.96,23.93,5.34,4.93,14.19,7.36,26.66,7.36h40.55Z"/>
        <path class="cls-2" d="M436.32,0v270.02c0,120.71-98.35,218.18-218.16,218.18S0,390.73,0,270.02v-19.65h101.93v19.65c0,64.39,51.85,117.13,116.23,117.13s116.23-52.74,116.23-117.13V101.94h-133.22V0h235.15Z"/>
      </g>
      <g>
        <polygon class="cls-1" points="2840.04 264.76 2813.1 291.7 2865.37 343.95 2884.21 362.81 2865.37 382.21 2813.1 434.46 2840.04 461.4 2892.3 409.14 2911.15 389.74 2919.24 382.21 2930.55 370.89 2938.09 362.81 2930.55 355.27 2919.24 343.95 2911.15 335.87 2892.3 317.02 2840.04 264.76"/>
        <polygon class="cls-1" points="2946.71 242.67 2908.46 242.67 2908.46 317.02 2927.31 335.87 2935.4 343.95 2946.71 355.27 2954.25 362.81 2946.71 370.89 2935.4 382.21 2927.31 389.74 2908.46 409.14 2908.46 483.48 2946.71 483.48 2946.71 409.14 2998.97 461.4 3025.9 434.46 2973.65 382.21 3047.99 382.21 3047.99 343.95 2973.65 343.95 3025.9 291.7 2998.97 264.76 2946.71 317.02 2946.71 242.67"/>
      </g>
    </g>
  </g>
</svg>