<?xml version="1.0" encoding="UTF-8"?>
<svg id="Capa_2" data-name="Capa 2" xmlns="http://www.w3.org/2000/svg" width="313.3" height="50.41" viewBox="0 0 313.3 50.41">
  <defs>
    <style>
      .cls-1 {
        fill: #E8EEF2;
      }

      .cls-2 {
        fill: #E8EEF2;
      }
    </style>
  </defs>
  <g id="Capa_1-2" data-name="Capa 1">
    <g>
      <g>
        <path class="cls-1" d="M138.34,49.27l-.11-21.51-10.02,17.51h-4.9l-9.97-16.93v20.93h-10.19V8.7h9.08l13.7,23.42,13.36-23.42h9.08l.11,40.58h-10.13Z"/>
        <path class="cls-1" d="M182.39,41.39h-16.48l-3.06,7.88h-11.25l17.21-40.58h10.86l17.26,40.58h-11.47l-3.06-7.88ZM179.16,32.93l-5.01-12.98-5.01,12.98h10.02Z"/>
        <path class="cls-1" d="M197.48,28.98c0-12.35,9.08-21.1,21.44-21.1,7.18,0,12.97,2.72,16.76,7.65l-7.02,6.61c-2.45-3.07-5.46-4.75-9.19-4.75-6.4,0-10.86,4.64-10.86,11.59s4.45,11.59,10.86,11.59c3.73,0,6.74-1.68,9.19-4.75l7.02,6.61c-3.79,4.93-9.58,7.65-16.76,7.65-12.36,0-21.44-8.75-21.44-21.1Z"/>
        <path class="cls-1" d="M266.03,41.39h-16.48l-3.06,7.88h-11.25l17.21-40.58h10.86l17.26,40.58h-11.47l-3.06-7.88ZM262.8,32.93l-5.01-12.98-5.01,12.98h10.02Z"/>
        <path class="cls-1" d="M283.68,8.7h11.03v31.48h18.6v9.1h-29.62V8.7Z"/>
      </g>
      <g>
        <path class="cls-2" d="M88.77,19.56v23.69c0,3.95-3.2,7.15-7.15,7.15s-7.15-3.2-7.15-7.15v-23.69c0-2.9-2.36-5.26-5.26-5.26s-5.26,2.36-5.26,5.26h0v23.7c0,3.46-2.45,6.34-5.71,7-.47.1-.95.15-1.44.15s-.97-.05-1.44-.15c-.47-.1-.91-.24-1.34-.42-.21-.09-.42-.19-.63-.3-.81-.44-1.52-1.03-2.11-1.74-1.02-1.24-1.63-2.82-1.63-4.55v-23.69c0-2.9-2.36-5.26-5.26-5.26s-5.26,2.36-5.26,5.26v23.69c0,3.95-3.2,7.15-7.15,7.15s-7.15-3.2-7.15-7.15v-23.69c0-1.1.1-2.17.27-3.22,3.12-1.88,5.22-5.3,5.22-9.2,0-.37-.02-.73-.05-1.09C33.82,2.33,38.83,0,44.39,0,49.09,0,53.42,1.67,56.8,4.45,60.18,1.67,64.5,0,69.21,0,80,0,88.77,8.78,88.77,19.56"/>
        <path class="cls-2" d="M19.56,0C8.78,0,0,8.78,0,19.56v23.69c0,3.95,3.2,7.15,7.15,7.15s7.15-3.2,7.15-7.15v-23.69c0-2.9,2.36-5.26,5.26-5.26,3.95,0,7.15-3.2,7.15-7.15S23.51,0,19.56,0"/>
      </g>
    </g>
  </g>
</svg>